{"glyphs":{"0":{"ha":798,"x_min":41,"x_max":757,"o":"m 41 522 q 41 493 41 507 q 68 296 41 403 q 161 104 96 191 q 325 -5 225 17 q 388 -10 357 -10 q 551 36 471 -10 q 686 179 631 82 q 752 387 742 276 q 757 487 757 438 q 735 689 757 581 q 638 884 714 798 q 425 983 562 970 q 416 983 421 983 q 217 915 300 983 q 91 740 135 847 q 41 522 46 633 m 380 715 q 399 717 390 717 q 470 669 439 717 q 505 567 500 620 q 511 491 511 515 q 494 374 511 436 q 425 290 477 313 q 391 283 407 283 q 332 309 362 283 q 281 393 301 335 q 262 511 262 450 q 262 522 262 513 q 263 553 262 532 q 292 642 264 589 q 380 715 320 696 "},"1":{"ha":570,"x_min":41,"x_max":529,"o":"m 528 812 q 492 948 527 911 q 391 985 456 985 q 368 984 380 985 q 366 984 367 984 q 282 963 321 980 q 203 922 243 947 q 121 880 165 901 q 49 831 56 852 q 41 793 41 811 q 48 737 41 770 q 49 732 49 735 q 50 728 49 730 q 75 659 57 673 q 106 644 93 644 q 169 671 130 644 q 205 689 194 689 q 205 689 205 689 q 212 688 208 688 q 217 683 215 688 q 219 673 218 679 q 219 663 219 667 q 218 644 219 654 q 218 641 218 643 q 217 635 217 638 q 216 629 217 632 q 206 475 212 545 q 193 221 193 330 q 193 203 193 212 q 224 41 193 93 q 358 -12 256 -11 q 363 -12 361 -12 q 372 -12 368 -12 q 477 7 441 -12 q 521 67 513 26 q 528 157 528 109 q 527 212 528 183 q 526 311 526 256 q 527 420 526 361 q 527 431 527 425 q 529 621 529 515 q 528 812 529 710 "},"2":{"ha":847,"x_min":41,"x_max":806,"o":"m 572 449 q 710 616 665 545 q 760 764 755 687 q 760 771 760 768 q 690 923 760 872 q 553 980 621 975 q 457 985 486 985 q 289 964 380 985 q 135 896 199 943 q 89 844 94 867 q 83 810 83 821 q 108 720 83 775 q 168 631 143 643 q 206 620 192 620 q 330 698 248 620 q 360 724 345 711 q 430 758 401 758 q 461 743 460 758 q 463 726 463 729 q 431 659 463 701 q 258 462 347 558 q 123 310 190 387 q 53 191 64 239 q 41 118 41 142 q 66 36 41 77 q 177 -10 92 -5 q 398 -14 276 -14 q 410 -14 401 -14 q 485 -13 432 -13 q 670 -7 559 -13 q 760 4 731 -5 q 796 41 787 12 q 806 133 804 71 q 806 163 806 149 q 793 259 806 226 q 755 296 780 292 q 710 300 730 300 q 659 296 687 300 q 566 292 618 292 q 550 292 558 292 q 484 309 487 296 q 481 326 481 322 q 504 376 481 347 q 555 432 527 404 q 557 434 557 433 q 558 435 557 434 q 559 435 558 435 q 559 435 559 435 q 559 436 559 435 q 559 436 559 436 q 559 436 559 436 q 568 444 564 440 q 568 445 568 445 q 569 446 569 446 q 569 446 569 446 q 570 446 569 446 q 571 448 570 447 q 572 449 572 448 "},"3":{"ha":763,"x_min":41,"x_max":722,"o":"m 102 14 q 274 -13 186 -13 q 326 -11 300 -13 q 496 26 410 -5 q 645 121 582 58 q 721 285 708 184 q 722 307 722 296 q 672 436 722 380 q 517 519 623 493 q 507 523 511 521 q 503 527 504 525 q 501 531 501 529 q 501 533 501 532 q 501 533 501 533 q 515 551 501 543 q 623 646 580 589 q 667 768 667 704 q 667 783 667 775 q 587 907 654 861 q 440 970 519 953 q 303 986 362 986 q 278 985 291 986 q 264 985 271 985 q 250 984 257 985 q 119 972 165 981 q 64 939 74 963 q 55 895 55 917 q 63 830 55 868 q 108 736 79 748 q 163 725 137 725 q 209 730 185 725 q 262 734 239 734 q 316 726 289 734 q 349 696 343 718 q 351 684 351 690 q 332 646 351 664 q 279 608 313 627 q 220 564 245 588 q 194 508 194 541 q 194 506 194 507 q 226 455 197 477 q 293 416 256 434 q 369 370 338 395 q 399 311 399 345 q 399 298 399 304 q 360 254 392 260 q 317 249 329 249 q 190 282 267 249 q 165 287 177 287 q 109 255 138 287 q 63 173 81 223 q 41 83 41 122 q 42 58 41 79 q 102 14 43 35 "},"4":{"ha":823,"x_min":41,"x_max":782,"o":"m 768 799 q 729 920 765 885 q 614 968 692 956 q 565 975 587 975 q 493 948 524 975 q 458 821 463 921 q 455 730 456 777 q 448 570 453 650 q 437 509 447 524 q 396 492 427 492 q 383 493 390 492 q 326 519 332 496 q 321 561 321 544 q 331 647 321 595 q 366 821 349 745 q 370 852 370 838 q 350 899 370 880 q 277 935 330 917 q 266 939 272 937 q 200 954 229 954 q 118 899 153 954 q 59 651 83 846 q 56 629 58 640 q 41 486 41 542 q 45 429 41 467 q 108 372 50 390 q 271 354 167 354 q 346 355 306 354 q 366 356 356 356 q 410 351 390 356 q 431 315 431 346 q 431 314 431 315 q 431 312 431 313 q 422 252 428 290 q 414 200 418 224 q 411 164 411 176 q 432 50 413 85 q 491 7 452 15 q 595 -1 530 -1 q 612 -1 604 -1 q 631 -1 622 -1 q 734 18 698 -1 q 776 77 769 37 q 782 155 782 116 q 779 227 782 188 q 775 403 775 302 q 775 432 775 417 q 775 456 775 444 q 768 799 775 590 "},"5":{"ha":805,"x_min":41,"x_max":764,"o":"m 370 444 q 427 404 420 425 q 433 374 433 383 q 415 332 433 353 q 361 309 398 311 q 206 336 277 313 q 144 347 172 347 q 72 313 103 347 q 41 190 41 279 q 41 189 41 189 q 41 186 41 188 q 84 59 43 102 q 191 1 125 16 q 328 -14 256 -14 q 342 -14 336 -14 q 540 14 446 -14 q 695 111 633 41 q 764 300 757 180 q 764 316 764 308 q 732 448 764 395 q 642 536 699 501 q 519 600 585 571 q 411 654 464 624 q 378 701 378 675 q 380 720 378 705 q 440 736 383 736 q 443 736 441 736 q 446 736 444 736 q 487 732 467 734 q 576 728 535 728 q 605 728 586 728 q 625 729 614 729 q 690 756 659 730 q 722 840 722 782 q 722 846 722 843 q 721 854 721 850 q 720 861 720 858 q 703 939 720 905 q 623 976 687 971 q 597 978 610 977 q 473 984 527 983 q 399 986 419 986 q 260 978 334 986 q 130 942 189 970 q 93 879 101 924 q 85 789 85 834 q 85 775 85 783 q 111 604 86 663 q 193 516 137 547 q 342 454 248 486 q 370 444 355 450 "},"6":{"ha":795,"x_min":41,"x_max":755,"o":"m 755 310 q 694 481 751 417 q 578 559 637 545 q 484 573 519 573 q 388 558 436 573 q 364 553 374 553 q 348 568 348 551 q 356 600 348 579 q 416 685 378 648 q 501 753 454 721 q 517 764 509 758 q 550 819 550 789 q 545 846 550 825 q 503 922 540 868 q 444 985 462 985 q 427 986 429 985 q 425 986 425 986 q 350 958 391 986 q 203 821 268 905 q 100 654 139 736 q 43 464 45 534 q 41 401 42 419 q 41 388 41 390 q 100 157 41 264 q 298 3 161 52 q 406 -14 353 -14 q 535 10 459 -14 q 680 114 612 34 q 755 310 748 194 m 381 368 q 443 390 418 390 q 474 380 454 390 q 499 347 494 372 q 505 311 505 323 q 489 252 505 285 q 428 203 474 220 q 395 199 411 199 q 345 219 366 199 q 323 273 323 239 q 327 305 323 280 q 381 368 330 331 "},"7":{"ha":807,"x_min":41,"x_max":766,"o":"m 291 966 q 210 964 246 966 q 89 956 129 964 q 45 926 48 948 q 41 896 41 905 q 59 796 41 861 q 93 698 76 726 q 126 669 110 669 q 144 669 142 669 q 233 681 175 669 q 361 703 283 692 q 380 705 372 705 q 412 674 412 707 q 408 648 412 663 q 336 389 380 523 q 279 199 307 298 q 274 182 277 191 q 259 118 262 140 q 256 91 256 96 q 275 38 256 62 q 351 -1 293 15 q 429 -13 396 -13 q 494 3 461 -13 q 555 117 528 20 q 637 373 595 250 q 742 713 694 542 q 747 732 745 723 q 766 812 765 790 q 766 835 766 835 q 730 925 766 878 q 665 980 694 975 q 608 985 636 985 q 517 980 571 985 q 291 966 437 972 "},"8":{"ha":858,"x_min":41,"x_max":817,"o":"m 161 873 q 102 726 102 793 q 109 672 102 715 q 169 560 115 629 q 184 528 184 541 q 184 527 184 528 q 184 522 184 525 q 165 500 184 515 q 71 394 102 449 q 41 284 41 338 q 46 231 41 259 q 163 59 75 118 q 320 -7 251 -1 q 414 -13 389 -13 q 578 14 499 -13 q 755 136 692 57 q 817 300 817 216 q 812 363 817 310 q 700 497 808 417 q 655 531 667 520 q 644 550 644 541 q 648 562 644 553 q 672 591 652 569 q 729 735 729 655 q 729 736 729 735 q 728 778 728 742 q 663 888 728 819 q 525 972 593 959 q 418 985 456 985 q 289 964 362 985 q 161 873 216 942 m 349 744 q 386 808 363 804 q 388 808 387 808 q 416 811 410 811 q 472 787 448 811 q 496 733 496 764 q 492 705 496 720 q 450 652 473 656 q 420 648 427 648 q 370 669 393 648 q 347 724 347 689 q 349 744 347 734 m 467 193 q 420 180 442 180 q 372 201 398 180 q 342 249 345 222 q 340 271 340 263 q 339 281 339 278 q 377 353 339 323 q 432 371 407 371 q 464 365 442 371 q 501 331 486 358 q 517 277 517 304 q 513 245 517 269 q 467 193 509 221 "},"9":{"ha":796,"x_min":41,"x_max":755,"o":"m 41 663 q 102 492 45 555 q 218 413 158 427 q 313 399 277 399 q 408 414 361 399 q 431 419 422 419 q 448 406 448 421 q 439 373 448 395 q 379 288 418 325 q 294 220 341 252 q 278 208 286 214 q 245 154 245 184 q 251 126 245 148 q 293 50 256 104 q 353 -13 334 -13 q 370 -14 367 -13 q 371 -14 371 -14 q 446 15 406 -14 q 593 153 528 68 q 695 319 656 236 q 753 509 751 439 q 755 571 754 551 q 755 585 755 583 q 696 815 755 709 q 498 970 636 921 q 391 986 444 986 q 260 963 338 986 q 116 859 184 940 q 41 663 48 779 m 414 606 q 353 583 378 583 q 321 592 342 583 q 296 626 301 602 q 292 661 292 650 q 307 721 292 688 q 368 769 322 753 q 400 774 386 774 q 451 754 430 774 q 473 700 473 734 q 470 671 473 693 q 469 667 469 669 q 414 606 467 642 "},"\u0000":{"ha":339,"x_min":0,"x_max":0,"o":""},"\u001d":{"ha":339,"x_min":0,"x_max":0,"o":""}," ":{"ha":339,"x_min":0,"x_max":0,"o":""}," ":{"ha":339,"x_min":0,"x_max":0,"o":""},"!":{"ha":444,"x_min":68,"x_max":375,"o":"m 317 416 q 328 478 321 437 q 358 675 342 565 q 375 845 374 786 q 375 853 375 849 q 340 952 375 926 q 203 978 307 978 q 201 978 202 978 q 198 978 199 978 q 192 978 195 978 q 90 945 112 978 q 68 859 68 911 q 70 825 68 843 q 96 629 76 747 q 119 480 107 564 q 124 448 121 465 q 150 372 131 390 q 216 352 169 355 q 243 350 231 350 q 287 357 265 350 q 317 416 309 365 m 77 144 q 77 136 77 140 q 104 51 77 96 q 192 -4 132 7 q 194 -4 193 -4 q 217 -5 205 -5 q 316 26 274 -5 q 365 106 358 58 q 367 136 367 121 q 341 225 367 182 q 233 275 315 269 q 232 275 232 275 q 230 275 231 275 q 119 234 158 275 q 77 144 80 193 "},"\"":{"ha":750,"x_min":68,"x_max":682,"o":"m 68 838 q 125 719 68 774 q 151 671 151 694 q 151 671 151 671 q 151 656 152 669 q 140 623 149 644 q 131 589 132 604 l 131 588 q 152 562 131 573 q 173 557 162 557 q 216 573 191 557 q 269 622 242 589 q 325 719 302 663 q 348 830 347 775 l 348 835 q 320 926 348 888 q 223 972 292 964 l 212 972 q 109 932 146 972 q 68 842 71 891 l 68 838 m 402 839 q 460 719 402 775 q 486 671 486 694 q 486 671 486 671 q 485 656 486 669 q 474 623 484 644 q 465 589 466 604 l 465 588 q 486 562 465 573 q 507 557 496 557 q 551 573 525 557 q 604 622 576 589 q 659 719 637 663 q 682 830 681 775 l 682 835 q 654 926 682 888 q 557 972 626 964 l 547 972 q 444 932 481 972 q 402 842 406 891 l 402 839 "},"#":{"ha":1403,"x_min":68,"x_max":1335,"o":"m 624 966 q 581 970 601 970 q 507 951 541 970 q 440 845 474 932 q 391 713 414 780 q 368 680 380 684 q 343 676 355 676 q 328 677 336 676 q 325 677 326 677 q 307 680 317 679 q 260 682 286 682 q 209 680 243 682 q 146 657 175 679 q 132 626 132 641 q 131 614 131 618 q 130 608 130 610 q 146 570 130 585 q 193 552 169 555 q 235 550 216 549 q 239 550 237 550 q 265 551 252 550 q 275 551 271 551 q 284 551 279 551 q 287 551 286 551 q 307 550 296 551 q 323 545 317 549 q 327 530 327 538 q 316 494 327 522 q 311 481 313 487 q 305 461 307 470 q 290 429 300 437 q 257 420 281 420 q 241 421 250 420 q 189 424 218 424 q 158 423 178 424 q 140 422 150 422 q 81 397 106 421 q 68 363 70 382 q 68 357 68 360 q 68 353 68 355 q 88 308 68 321 q 146 294 109 295 q 155 294 151 294 q 168 294 161 294 q 180 294 174 294 q 207 293 192 294 q 231 286 222 292 q 237 267 237 279 q 235 252 237 263 q 227 226 233 241 q 223 213 225 218 q 211 134 211 174 q 212 114 211 127 q 214 92 213 105 q 262 31 216 62 q 314 12 287 17 q 379 3 350 3 q 463 29 424 3 q 540 176 503 55 q 568 270 555 223 q 568 273 568 271 q 569 275 568 274 q 585 301 575 296 q 611 307 594 307 q 614 307 612 307 q 616 307 615 307 q 618 307 617 307 q 621 307 620 307 q 629 307 625 307 q 670 298 667 307 q 673 285 673 290 q 664 252 673 272 q 654 220 659 237 q 641 156 642 180 q 640 127 640 132 q 640 127 640 127 q 671 45 640 79 l 675 42 q 743 12 705 19 q 808 3 779 3 q 892 29 852 3 q 969 176 932 55 q 990 250 981 212 q 1013 287 998 279 q 1048 294 1028 294 q 1062 293 1055 294 q 1081 292 1070 293 q 1142 290 1109 290 q 1195 291 1160 290 q 1256 313 1231 292 q 1272 355 1272 332 q 1272 359 1272 357 q 1245 413 1271 401 q 1183 425 1221 425 q 1159 425 1171 425 q 1126 424 1142 425 q 1087 423 1107 423 q 1054 429 1061 423 q 1046 444 1046 435 q 1047 452 1046 445 q 1054 474 1048 458 q 1060 494 1057 483 q 1064 506 1062 500 q 1065 509 1064 508 q 1079 542 1069 533 q 1115 551 1088 551 q 1121 551 1118 551 q 1128 550 1124 550 q 1149 549 1137 550 q 1206 547 1175 547 q 1261 549 1224 547 q 1321 572 1297 550 q 1335 612 1335 590 q 1335 616 1335 614 q 1310 669 1334 657 q 1247 682 1285 682 q 1223 682 1235 682 q 1198 682 1211 682 q 1165 681 1183 681 q 1127 690 1128 682 q 1126 700 1126 698 q 1137 735 1126 714 q 1145 754 1141 744 q 1171 862 1171 823 q 1166 902 1171 878 q 1125 945 1161 926 l 1120 947 q 1053 966 1088 962 q 1010 970 1029 970 q 937 951 970 970 q 869 845 903 932 q 814 699 840 773 q 795 671 806 675 q 774 666 785 666 q 764 667 769 666 q 742 666 753 667 l 722 666 q 702 669 711 666 q 693 682 693 673 q 700 712 694 692 q 715 753 707 732 q 719 764 717 759 q 724 781 722 774 q 741 865 741 830 q 728 921 741 890 q 624 966 715 953 m 613 426 q 632 494 618 456 q 635 503 633 498 q 640 519 637 511 q 661 558 649 552 q 692 564 673 564 q 697 564 694 564 q 703 564 700 564 l 725 564 q 729 564 727 564 q 732 564 731 564 q 751 562 742 564 q 760 547 760 559 q 760 543 760 545 q 751 513 758 530 q 749 507 750 510 q 741 485 745 494 q 740 480 741 483 q 739 474 739 477 q 726 436 734 456 q 703 411 718 416 q 680 409 692 409 q 674 410 677 409 q 667 410 671 410 l 650 410 q 646 410 648 410 q 640 409 643 409 q 640 409 640 409 q 630 410 637 409 q 618 414 624 410 q 613 426 613 417 "},"$":{"ha":878,"x_min":68,"x_max":810,"o":"m 111 730 q 111 723 111 726 q 141 586 111 637 q 224 508 172 536 q 337 458 275 479 q 400 434 369 448 q 446 398 438 416 q 453 370 453 380 q 441 341 453 357 q 392 325 430 325 q 235 351 308 328 q 172 363 200 363 q 127 353 153 363 q 84 301 100 342 q 68 199 68 260 q 112 74 70 115 q 218 18 153 33 q 355 -3 283 3 q 361 -4 358 -3 q 367 -5 364 -4 q 386 -9 381 -5 q 391 -29 391 -14 q 391 -33 391 -31 q 391 -36 391 -35 q 391 -39 391 -37 q 391 -59 391 -49 q 399 -102 391 -85 q 456 -119 408 -119 q 460 -119 458 -119 q 502 -103 494 -119 q 510 -62 510 -85 q 507 -25 510 -46 q 507 -22 507 -23 q 506 -10 506 -15 q 507 0 506 -4 q 515 8 509 4 q 536 15 522 12 q 538 16 537 16 q 539 16 538 16 q 699 90 629 41 q 795 225 769 139 q 810 324 810 279 q 781 435 810 378 q 675 538 753 492 q 503 623 597 585 q 450 663 461 643 q 439 693 439 682 q 450 719 439 705 q 509 733 463 733 q 513 733 511 733 q 516 733 515 733 q 660 696 592 726 q 724 683 698 683 q 771 704 754 683 q 788 775 788 726 q 787 802 788 787 q 758 893 785 850 q 663 958 730 936 q 508 979 595 979 q 505 979 507 979 q 503 979 504 979 q 496 979 500 979 q 478 985 482 979 q 473 1017 473 991 q 473 1017 473 1017 q 473 1018 473 1017 q 473 1018 473 1018 q 473 1027 473 1023 q 473 1036 473 1032 q 473 1042 473 1040 q 473 1044 473 1043 q 471 1067 474 1056 q 454 1085 468 1078 q 406 1093 439 1093 q 361 1080 367 1093 q 355 1053 355 1066 q 359 1020 355 1038 q 362 1004 361 1011 q 363 999 363 1002 q 367 979 367 986 q 367 978 367 978 q 367 975 367 977 q 363 970 366 972 q 353 965 360 968 q 333 958 346 962 q 330 958 332 958 q 327 957 328 958 q 176 878 237 932 q 111 730 115 823 "},"%":{"ha":987,"x_min":68,"x_max":919,"o":"m 840 749 q 890 869 890 820 q 886 903 890 875 q 798 965 882 931 q 716 986 752 986 q 673 979 702 986 q 589 897 645 972 q 294 474 434 686 q 214 355 250 408 q 192 323 202 338 q 102 166 108 207 q 97 118 97 125 q 171 18 97 55 q 273 -14 229 -14 q 328 -1 292 -14 q 433 117 364 10 q 511 241 462 163 q 519 254 515 248 q 840 749 661 482 m 68 805 q 68 794 68 800 q 79 724 68 762 q 117 654 90 686 q 183 615 142 623 q 208 614 196 614 q 307 654 264 614 q 356 756 349 694 q 358 793 358 775 q 332 909 358 854 q 223 972 306 964 q 111 920 149 972 q 68 805 71 867 m 629 193 q 629 185 629 189 q 640 112 629 151 q 678 42 652 73 q 745 3 704 10 q 770 1 758 1 q 868 41 826 1 q 917 144 910 82 q 919 183 919 164 q 893 296 919 241 q 785 359 867 351 q 671 307 711 359 q 629 193 633 255 "},"&":{"ha":1024,"x_min":68,"x_max":956,"o":"m 69 231 q 163 49 77 119 q 264 -5 210 12 q 377 -22 319 -22 q 573 28 481 -20 q 621 56 598 40 q 655 78 638 68 q 697 92 676 92 q 731 83 715 92 q 756 66 744 76 q 802 40 778 47 q 814 39 808 39 q 865 58 839 39 q 910 101 891 78 q 944 146 932 123 q 956 180 956 168 q 941 215 956 199 q 905 237 925 229 q 905 238 905 238 q 903 239 904 238 q 871 259 886 246 q 868 269 868 264 q 872 281 868 273 q 883 295 876 288 l 895 307 q 927 349 916 327 q 930 365 930 358 q 910 401 930 384 q 862 431 890 418 q 848 439 854 435 q 803 461 827 452 q 760 471 780 471 q 749 470 755 471 q 705 434 719 462 q 705 433 705 433 q 704 431 705 432 q 695 418 701 425 q 685 409 690 412 q 685 409 685 409 q 684 409 684 409 q 684 409 684 409 q 657 421 673 409 q 632 441 641 433 q 632 442 632 441 q 631 442 631 442 q 631 442 631 442 q 608 466 621 451 q 596 494 596 481 q 596 495 596 494 q 596 496 596 496 q 615 522 601 509 q 643 545 629 535 q 646 547 644 547 q 648 549 647 549 q 755 680 741 622 q 770 760 770 736 q 713 906 770 831 q 634 965 680 945 q 538 991 589 985 q 477 994 508 994 q 344 977 410 994 q 205 900 256 953 q 146 755 155 846 q 146 729 146 743 q 188 568 146 644 q 197 553 193 560 q 201 547 199 550 q 205 542 203 544 q 208 536 207 539 q 208 536 208 536 q 209 535 208 536 q 209 535 209 535 q 212 530 210 533 q 216 519 215 525 q 216 518 216 519 q 216 518 216 518 q 216 517 216 518 q 208 499 216 509 q 192 484 200 490 q 192 483 192 484 q 191 483 191 483 q 191 482 191 482 q 98 377 127 427 q 68 256 68 327 q 69 231 68 244 m 458 657 q 441 650 449 650 q 428 657 435 650 q 416 681 420 663 q 412 711 412 696 q 415 737 412 720 q 430 773 418 754 q 454 792 442 789 q 473 794 467 795 q 474 794 473 794 q 503 787 488 794 q 522 755 522 773 q 517 734 522 750 q 494 694 513 718 q 458 657 475 669 m 466 210 q 392 185 431 190 q 388 185 390 185 q 384 184 386 184 q 358 191 370 184 q 344 216 347 197 q 344 220 344 218 q 343 224 343 222 q 349 251 343 236 q 363 279 354 267 q 399 298 379 298 q 429 290 413 298 q 476 248 457 273 q 481 232 481 239 q 466 210 481 220 "},"'":{"ha":416,"x_min":68,"x_max":348,"o":"m 68 839 q 125 719 68 775 q 151 671 151 694 q 151 671 151 671 q 151 656 152 669 q 140 623 149 644 q 131 589 132 604 l 131 588 q 152 562 131 573 q 173 557 162 557 q 216 573 191 557 q 269 622 242 589 q 325 719 302 663 q 348 830 347 775 l 348 835 q 320 926 348 888 q 223 972 292 964 l 212 972 q 109 932 146 972 q 68 842 71 891 l 68 839 "},"(":{"ha":636,"x_min":68,"x_max":568,"o":"m 370 1070 q 222 928 290 1017 q 111 727 153 839 q 68 490 69 615 q 110 251 68 365 q 220 47 152 137 q 370 -98 288 -43 q 444 -128 410 -128 q 463 -128 444 -128 q 522 -60 480 -127 q 563 22 558 -1 q 567 52 567 45 q 536 111 567 84 q 320 497 323 297 q 320 502 320 499 q 536 861 320 685 q 568 920 568 887 q 563 949 568 926 q 522 1032 558 973 q 463 1101 480 1100 q 444 1101 445 1101 q 370 1070 410 1101 "},")":{"ha":636,"x_min":68,"x_max":568,"o":"m 266 1070 q 193 1101 227 1101 q 174 1101 192 1101 q 115 1032 157 1100 q 73 949 78 973 q 68 920 68 926 q 100 861 68 887 q 316 502 316 685 q 316 497 316 499 q 100 111 313 297 q 69 52 69 84 q 73 22 69 45 q 115 -60 78 -1 q 174 -128 157 -127 q 193 -128 192 -128 q 266 -98 227 -128 q 416 47 347 -43 q 527 251 485 137 q 568 490 568 365 q 525 727 567 615 q 415 928 484 839 q 266 1070 347 1017 "},"*":{"ha":646,"x_min":68,"x_max":578,"o":"m 328 406 q 378 442 369 409 q 387 506 387 475 q 386 519 387 512 q 383 552 385 536 q 381 577 382 564 l 381 582 q 384 595 381 592 q 388 597 386 597 q 394 595 391 597 q 408 585 400 591 q 412 581 410 583 q 428 570 420 576 q 475 536 450 551 q 502 522 491 526 q 518 518 512 519 q 526 519 524 518 q 526 519 526 519 q 564 545 548 519 q 574 578 574 564 q 566 606 574 593 q 521 652 551 633 q 466 683 492 672 q 448 696 448 692 l 448 700 q 456 711 448 707 q 477 720 465 716 q 486 724 482 722 q 489 725 488 724 q 553 765 529 742 q 578 814 578 788 q 574 837 578 825 q 531 871 557 871 q 524 870 528 871 q 459 844 492 865 q 427 821 442 833 q 410 809 418 815 q 404 804 407 807 q 385 797 391 797 q 384 797 385 797 q 383 798 384 797 q 378 808 378 801 l 378 810 q 380 830 378 819 q 381 835 381 833 q 382 840 381 838 q 385 888 385 862 l 385 899 q 372 958 384 933 q 329 983 359 983 q 273 956 281 979 q 264 905 264 931 q 265 886 264 896 q 269 850 267 868 q 271 818 271 834 l 271 814 q 268 799 271 802 q 264 798 266 798 q 257 800 261 798 q 243 810 250 804 q 237 814 240 812 q 235 816 236 815 q 234 817 235 816 q 186 850 214 832 q 142 871 158 867 q 123 873 127 874 q 122 873 122 873 q 87 852 101 873 q 75 810 75 830 l 75 806 q 96 765 75 783 q 168 725 128 741 q 193 713 181 720 q 210 699 210 705 q 210 698 210 699 q 210 697 210 698 q 189 685 205 691 l 183 682 q 125 654 156 671 q 81 616 94 635 q 68 583 68 597 q 77 551 68 568 q 119 524 94 524 l 121 524 q 176 540 147 524 q 227 574 203 556 q 248 588 238 582 q 262 594 257 594 l 264 594 q 269 585 269 592 q 267 568 269 578 l 266 561 q 263 508 263 538 l 263 496 q 278 435 264 461 q 328 406 292 408 "},"+":{"ha":818,"x_min":68,"x_max":750,"o":"m 537 408 q 623 400 598 400 q 649 400 647 400 q 721 418 694 400 q 750 489 749 437 q 722 556 750 539 q 649 573 694 573 l 642 573 q 532 564 593 572 q 526 563 529 564 q 524 563 524 563 q 508 562 514 562 q 488 567 493 562 q 484 585 484 572 q 485 597 484 591 q 486 600 486 598 q 487 610 486 605 q 488 619 487 614 q 495 726 495 679 q 476 799 495 772 q 407 827 456 825 q 340 800 357 827 q 322 726 322 772 l 322 723 q 331 616 323 675 l 332 602 q 334 583 334 591 q 331 567 334 572 q 309 559 326 559 q 297 560 304 559 l 271 563 q 185 570 224 570 q 134 566 158 570 q 69 492 79 557 q 69 490 69 491 q 68 472 68 480 q 85 422 68 439 q 130 404 107 404 q 158 404 154 404 q 251 410 199 404 q 296 414 273 412 q 309 415 303 415 q 328 410 321 415 q 336 387 336 405 q 335 375 336 382 l 332 349 q 326 262 326 300 q 329 212 326 235 q 403 146 338 157 q 405 146 404 146 q 422 145 414 145 q 473 163 458 145 q 492 207 492 184 q 492 229 492 224 q 492 231 492 231 q 486 328 492 273 q 481 371 484 349 q 481 382 481 377 q 490 406 481 401 q 510 411 497 411 q 523 410 516 411 q 525 410 524 410 l 537 408 "},",":{"ha":416,"x_min":68,"x_max":348,"o":"m 68 147 q 125 28 68 83 q 151 -21 151 3 q 151 -21 151 -21 q 151 -36 152 -23 q 140 -69 149 -48 q 132 -103 132 -87 l 132 -104 q 152 -131 132 -119 q 172 -135 161 -135 q 216 -119 190 -135 q 269 -69 242 -103 q 325 28 302 -28 q 348 138 347 83 l 348 143 q 320 235 348 196 q 223 280 292 273 q 210 281 218 281 q 109 240 146 281 q 68 150 71 199 l 68 147 "},"-":{"ha":817,"x_min":68,"x_max":749,"o":"m 389 419 q 465 416 428 419 q 537 408 503 412 q 623 400 598 400 q 649 400 647 400 q 721 418 694 400 q 749 489 749 437 q 722 555 749 538 q 649 573 695 573 l 646 573 q 538 564 598 572 q 401 554 471 554 q 271 563 334 554 q 184 570 223 570 q 134 566 157 570 q 69 492 79 557 q 69 490 69 491 q 68 472 68 480 q 85 422 68 439 q 130 404 107 404 q 158 404 154 404 q 250 410 198 404 q 389 419 316 419 "},"­":{"ha":817,"x_min":68,"x_max":749,"o":"m 389 419 q 250 410 316 419 q 158 404 198 404 q 130 404 154 404 q 85 422 107 404 q 68 472 68 439 q 69 490 68 480 q 69 492 69 491 q 134 566 79 557 q 184 570 157 570 q 271 563 223 570 q 401 554 334 554 q 538 564 471 554 q 646 573 598 572 l 649 573 q 722 555 695 573 q 749 489 749 538 q 721 418 749 437 q 649 400 694 400 q 623 400 647 400 q 537 408 598 400 q 465 416 503 412 q 389 419 428 419 "},".":{"ha":425,"x_min":68,"x_max":357,"o":"m 68 142 q 95 56 68 100 q 182 1 121 13 q 206 0 195 0 q 307 32 264 0 q 355 112 349 64 q 357 141 357 127 q 332 231 357 188 q 223 280 305 275 l 220 280 q 109 239 149 280 q 68 150 71 199 l 68 142 "},"/":{"ha":789,"x_min":68,"x_max":720,"o":"m 350 543 q 183 277 254 379 q 85 117 102 161 q 68 54 68 73 q 104 -18 68 14 q 146 -35 125 -35 q 215 17 176 -35 q 321 208 255 69 q 454 460 375 320 q 609 707 543 610 q 703 861 686 817 q 720 924 720 903 q 691 985 720 960 q 643 1007 667 1007 q 581 965 616 1007 q 481 787 547 923 q 350 543 429 683 "},":":{"ha":426,"x_min":68,"x_max":358,"o":"m 68 785 q 95 697 68 742 q 183 642 122 652 q 207 640 196 640 q 307 672 265 640 q 356 752 349 704 q 358 781 358 767 q 332 871 358 828 q 224 921 306 915 q 111 880 150 921 q 68 791 71 840 l 68 785 m 68 191 q 95 104 68 149 q 183 49 122 60 q 207 47 196 47 q 307 79 265 47 q 356 159 349 111 q 358 189 358 174 q 332 279 358 235 q 224 328 306 323 l 221 328 q 110 287 149 328 q 68 197 71 246 l 68 191 "},";":{"ha":425,"x_min":68,"x_max":357,"o":"m 68 783 q 95 697 68 741 q 182 642 123 652 q 206 640 195 640 q 307 672 264 640 q 355 752 349 704 q 357 783 357 768 q 332 872 357 829 q 223 921 306 915 q 110 880 149 921 q 68 791 71 840 l 68 783 m 73 195 q 130 75 73 131 q 156 26 156 50 q 156 26 156 26 q 155 12 157 24 q 144 -22 154 -1 q 136 -56 136 -40 l 136 -56 q 157 -83 136 -71 q 177 -87 166 -87 q 221 -72 195 -87 q 274 -22 247 -56 q 330 75 307 19 q 353 186 351 131 l 353 191 q 325 282 353 243 q 228 328 296 320 q 215 328 222 328 q 113 288 151 328 q 73 197 76 247 l 73 195 "},";":{"ha":425,"x_min":68,"x_max":357,"o":"m 68 783 l 68 791 q 110 880 71 840 q 223 921 149 921 q 332 872 306 915 q 357 783 357 829 q 355 752 357 768 q 307 672 349 704 q 206 640 264 640 q 182 642 195 640 q 95 697 123 652 q 68 783 68 741 m 73 195 l 73 197 q 113 288 76 247 q 215 328 151 328 q 228 328 222 328 q 325 282 296 320 q 353 191 353 243 l 353 186 q 330 75 351 131 q 274 -22 307 19 q 221 -72 247 -56 q 177 -87 195 -87 q 157 -83 166 -87 q 136 -56 136 -71 l 136 -56 q 144 -22 136 -40 q 155 12 154 -1 q 156 26 157 24 q 156 26 156 26 q 130 75 156 50 q 73 195 73 131 "},"<":{"ha":678,"x_min":68,"x_max":610,"o":"m 277 700 q 119 562 191 613 q 68 488 68 528 q 68 467 68 487 q 119 410 68 446 q 277 273 191 359 q 374 161 332 218 q 445 79 411 112 q 511 39 479 45 q 522 38 517 38 q 582 68 550 38 q 610 123 610 96 q 606 149 610 129 q 568 201 602 168 q 486 271 533 234 q 382 360 432 313 q 315 435 345 398 q 288 486 288 467 l 288 488 q 311 532 288 506 q 382 612 342 572 q 486 702 432 661 q 568 771 534 738 q 609 838 602 805 q 610 849 610 844 q 582 905 610 877 q 522 935 550 935 q 498 931 517 935 q 446 894 479 928 q 374 812 412 860 q 277 700 332 756 "},"=":{"ha":817,"x_min":68,"x_max":749,"o":"m 389 579 q 537 569 467 579 q 623 561 598 561 q 649 561 647 561 q 721 579 694 561 q 749 650 749 598 q 722 716 749 699 q 649 734 695 734 l 646 734 q 538 725 598 732 q 401 715 471 715 q 271 724 334 715 q 184 730 222 730 q 134 727 157 730 q 69 653 79 718 q 69 651 69 652 q 68 633 68 641 q 85 583 68 600 q 130 564 107 564 q 158 564 154 564 q 250 570 198 564 q 389 579 316 579 m 389 258 q 465 255 428 258 q 537 248 503 252 q 623 239 598 239 q 649 239 647 239 q 721 258 694 239 q 749 328 749 277 q 722 395 749 377 q 649 412 695 412 l 646 412 q 538 404 598 412 q 401 393 471 393 q 271 402 334 393 q 184 409 223 409 q 134 406 157 409 q 69 332 79 397 q 69 330 69 330 q 68 311 68 319 q 85 262 68 278 q 130 243 107 243 q 157 243 153 243 q 250 249 198 243 q 389 258 316 258 "},">":{"ha":679,"x_min":68,"x_max":611,"o":"m 401 700 q 304 812 347 756 q 233 894 267 860 q 181 931 200 928 q 174 932 177 932 q 157 935 161 935 q 97 905 129 935 q 68 849 68 877 q 70 838 68 844 q 111 771 77 805 q 193 702 145 738 q 297 612 246 661 q 368 532 337 572 q 391 487 391 507 l 391 486 q 363 435 391 467 q 297 360 334 398 q 193 271 246 313 q 111 201 145 234 q 73 149 77 168 q 68 124 68 130 q 97 68 68 97 q 157 38 129 38 q 167 39 163 38 q 233 79 199 45 q 304 161 267 112 q 401 273 347 218 q 559 410 487 359 q 610 466 610 446 q 611 486 611 486 q 559 562 611 527 q 401 700 487 613 "},"?":{"ha":812,"x_min":68,"x_max":744,"o":"m 744 756 q 744 764 744 761 q 675 916 744 865 q 538 973 605 968 q 443 979 471 979 q 274 958 365 979 q 121 888 184 937 q 74 836 79 859 q 68 803 68 813 q 93 713 68 768 q 152 625 127 636 q 191 613 176 613 q 315 690 233 613 q 330 704 322 697 q 345 717 337 710 q 415 751 386 751 q 446 736 445 751 q 448 719 448 721 q 416 652 448 692 q 404 637 410 644 q 341 554 365 591 q 311 468 318 517 q 307 427 307 446 q 321 369 307 395 q 399 342 336 342 q 408 342 404 342 q 471 355 452 342 q 510 418 491 368 q 562 501 531 467 q 627 563 593 536 q 705 642 672 598 q 744 756 739 685 m 260 144 q 259 138 260 141 q 259 134 259 136 q 286 50 259 94 q 374 -5 313 6 q 376 -5 375 -5 q 397 -7 387 -7 q 498 25 456 -7 q 547 105 541 57 q 549 136 549 121 q 523 224 549 182 q 415 274 498 268 q 414 274 414 274 q 412 274 414 274 q 301 233 340 274 q 260 144 262 193 "},"@":{"ha":992,"x_min":18,"x_max":987,"o":"m 401 681 q 333 579 350 631 q 315 488 315 528 q 322 430 315 459 q 376 333 334 374 q 463 298 414 298 q 472 298 468 298 q 562 338 524 300 q 572 350 567 343 q 581 360 576 355 q 594 369 586 368 q 595 369 595 369 q 595 369 595 369 q 595 369 595 369 q 604 365 600 369 q 611 357 608 361 q 623 341 617 349 q 640 319 631 330 q 701 275 668 287 q 769 263 734 263 q 776 263 772 263 q 784 264 780 264 q 917 343 867 276 q 979 488 966 410 q 987 580 987 534 q 983 654 987 606 q 947 768 978 702 q 741 960 880 903 q 544 1002 642 1002 q 492 1002 543 1002 q 338 971 441 1001 q 140 847 220 937 q 33 638 61 758 q 18 507 18 572 q 38 355 18 431 q 203 81 82 195 q 338 -2 263 28 q 479 -29 406 -29 q 490 -28 485 -29 q 499 -28 494 -28 q 614 -9 557 -25 q 676 12 643 -3 q 719 59 710 28 q 720 72 720 66 q 710 115 720 91 q 687 163 700 140 q 684 169 685 166 q 644 227 668 201 q 608 241 628 241 q 603 241 606 241 q 562 230 583 237 q 557 228 560 229 q 494 212 526 217 q 463 210 478 210 q 378 231 421 210 q 303 299 337 253 q 253 399 270 345 q 242 484 242 441 q 259 592 242 527 q 330 725 277 656 q 416 803 366 770 q 524 842 467 836 q 556 844 540 844 q 684 810 623 844 q 779 694 745 776 q 791 648 787 672 q 801 583 798 617 q 801 578 801 581 q 802 570 802 574 q 802 563 802 568 q 801 549 801 557 q 795 517 801 534 q 777 496 790 501 q 768 494 772 494 q 741 524 751 494 q 732 584 732 553 q 732 593 732 589 q 719 648 732 623 q 682 693 705 674 q 570 741 633 734 q 555 741 562 741 q 475 726 518 741 q 401 681 433 711 "},"A":{"ha":857,"x_min":27,"x_max":831,"o":"m 659 788 q 592 921 639 874 q 448 985 545 968 q 411 987 429 987 q 292 932 340 987 q 217 775 245 878 q 130 515 171 624 q 54 280 87 399 q 28 146 32 203 q 27 132 27 140 q 58 50 27 85 q 174 -5 87 14 q 262 -16 227 -16 q 311 -8 284 -16 q 351 34 338 0 q 368 123 364 68 q 388 237 373 174 q 435 291 404 290 l 436 291 q 478 234 468 291 q 483 156 483 192 l 483 150 q 494 71 483 104 q 551 20 504 37 q 664 7 588 7 q 704 7 684 7 q 804 43 777 12 q 830 119 830 74 q 830 120 830 119 q 829 149 831 124 q 814 222 827 174 q 728 541 777 371 q 659 788 688 681 m 429 686 q 466 656 450 685 q 487 586 481 628 q 489 559 489 573 q 480 506 489 534 q 439 468 471 477 q 418 466 427 466 q 374 489 387 466 q 361 543 361 512 q 365 582 361 553 q 387 646 368 610 q 429 686 406 683 "},"B":{"ha":828,"x_min":27,"x_max":801,"o":"m 328 997 q 128 943 189 986 q 57 831 68 901 q 49 720 49 781 q 50 669 49 695 q 50 667 50 668 q 52 608 52 638 q 46 479 52 548 q 27 206 27 307 q 65 56 27 106 q 196 -14 102 5 q 311 -26 249 -26 q 414 -20 345 -26 q 582 28 484 -13 q 742 146 680 69 q 801 330 801 220 l 801 340 q 747 490 795 435 q 618 566 699 545 q 585 589 587 576 l 585 591 q 602 626 585 603 q 651 737 637 673 q 655 777 655 756 q 632 880 655 825 q 557 958 607 931 q 446 993 508 985 q 366 998 405 998 q 328 997 347 998 m 459 355 q 425 273 454 300 q 354 243 396 246 q 341 243 347 243 q 278 259 308 243 q 240 310 248 275 q 240 312 240 311 q 239 331 239 321 q 267 397 239 372 q 341 427 295 422 q 357 427 349 427 q 426 410 393 427 q 459 355 458 393 m 412 772 q 372 700 412 718 q 318 688 346 688 q 275 694 304 688 q 240 728 246 701 l 240 730 q 279 800 240 774 q 355 826 316 826 q 382 825 359 826 q 412 775 405 824 l 412 772 "},"C":{"ha":737,"x_min":27,"x_max":710,"o":"m 28 401 q 112 172 39 267 q 286 39 184 77 q 484 1 386 1 q 564 5 522 1 q 678 72 646 18 q 710 188 710 126 l 710 198 q 682 319 708 267 q 618 379 656 372 l 613 379 q 528 363 580 379 q 445 345 475 349 q 408 342 415 342 q 407 342 407 342 q 326 375 359 342 q 280 516 286 411 l 280 519 q 323 646 280 608 q 413 684 364 684 l 418 684 q 530 654 475 680 q 612 631 585 631 q 625 633 619 631 q 690 684 672 644 q 708 769 708 724 l 707 783 q 686 884 705 837 q 627 953 664 934 q 543 972 589 972 l 537 972 q 258 900 376 969 q 83 713 140 831 q 27 453 27 597 q 28 401 27 428 "},"D":{"ha":817,"x_min":27,"x_max":789,"o":"m 33 757 q 27 410 27 581 q 28 298 27 353 q 28 208 28 253 l 28 205 q 98 1 28 42 q 178 -17 130 -17 q 318 9 236 -17 q 543 124 437 46 q 717 311 649 202 q 789 547 784 419 l 789 562 q 748 752 789 675 q 628 885 703 835 q 464 959 554 935 q 318 989 368 987 q 262 989 268 989 q 109 941 172 989 q 33 757 41 889 m 441 566 q 367 409 416 457 q 298 373 331 373 q 260 385 288 373 q 227 484 233 395 q 227 526 227 505 q 228 584 227 556 q 272 690 235 658 q 342 719 305 719 q 373 716 348 719 q 425 675 397 713 q 444 606 444 648 q 441 566 444 587 "},"E":{"ha":678,"x_min":27,"x_max":651,"o":"m 621 854 q 570 960 620 932 q 431 987 520 987 q 406 986 419 987 q 254 973 327 985 q 130 922 180 961 q 65 798 79 882 q 54 617 54 712 q 52 505 54 564 q 41 391 48 451 q 29 276 31 318 q 27 222 27 234 q 41 115 27 165 q 109 21 58 55 q 253 -14 159 -14 l 260 -14 q 387 1 309 -13 q 534 38 463 14 q 632 98 604 62 q 651 161 650 129 q 651 196 651 194 q 635 309 651 256 q 584 374 618 366 q 555 376 571 376 q 517 373 537 376 q 445 357 481 367 q 336 340 385 340 l 332 340 q 258 394 280 340 q 251 429 251 412 q 252 439 251 435 q 273 472 253 462 q 336 483 302 483 l 348 483 q 405 492 382 483 q 433 542 431 502 q 408 597 432 586 q 353 609 385 608 q 298 619 324 610 q 281 656 281 629 l 281 658 q 296 717 282 688 q 332 751 310 745 q 355 753 342 753 q 387 750 370 753 q 447 735 416 745 q 541 716 517 716 q 578 722 560 716 q 616 772 610 738 q 621 836 621 807 q 621 852 621 845 l 621 854 "},"F":{"ha":669,"x_min":27,"x_max":642,"o":"m 376 981 q 332 982 353 982 q 126 954 195 982 q 43 855 58 926 q 33 734 33 806 q 35 669 33 704 q 36 560 36 619 l 36 519 q 31 362 34 433 q 27 224 27 285 q 33 106 27 170 q 80 11 37 42 q 159 -9 107 -9 q 225 -3 189 -9 q 347 55 311 10 q 372 140 372 86 q 367 189 372 162 q 342 274 358 237 q 326 328 332 304 q 325 342 325 336 q 333 371 325 358 q 378 401 351 394 q 433 408 404 408 q 496 418 469 408 q 525 471 522 429 l 525 473 q 500 528 525 517 q 441 538 475 538 l 431 538 q 375 545 403 538 q 330 580 347 551 q 320 619 320 598 q 323 647 320 627 q 351 691 327 667 q 415 715 374 715 q 498 698 460 712 q 559 684 532 686 l 562 684 q 608 711 588 684 q 639 813 627 739 q 642 848 642 831 q 632 913 642 880 q 589 960 622 948 q 399 981 497 983 q 376 981 389 981 "},"G":{"ha":823,"x_min":27,"x_max":795,"o":"m 680 966 q 573 986 635 986 q 538 985 571 986 q 439 970 504 985 q 327 935 374 956 q 131 769 205 880 q 35 526 57 659 q 27 423 27 474 q 54 247 27 345 q 175 69 81 148 q 425 -13 269 -10 q 625 40 535 -12 q 762 172 715 91 q 793 300 786 214 q 795 376 795 338 q 791 479 795 427 q 725 589 781 566 q 656 602 696 602 q 579 592 621 602 q 517 545 528 579 q 513 516 513 532 q 524 468 513 493 q 541 396 541 429 q 531 347 541 378 q 452 312 521 315 q 355 357 387 314 q 317 460 323 401 q 315 494 315 477 q 326 570 315 534 q 404 684 352 653 q 514 713 454 713 q 627 705 574 713 q 686 699 661 700 l 692 699 q 722 707 713 699 q 741 780 741 730 q 741 813 741 784 q 724 897 740 843 q 680 966 707 951 "},"H":{"ha":808,"x_min":27,"x_max":781,"o":"m 43 876 q 39 718 39 805 q 40 641 39 681 q 41 529 41 585 l 41 473 q 33 254 39 363 q 27 74 28 155 q 64 -5 28 8 q 138 -18 100 -18 q 183 -14 159 -18 q 310 18 280 -5 q 340 87 340 41 q 338 114 340 100 q 323 188 334 150 q 307 282 309 237 q 339 356 309 340 q 390 372 369 372 q 424 364 408 372 q 466 298 463 349 l 470 181 q 473 89 472 135 q 517 16 477 38 q 606 -10 556 -5 q 662 -14 637 -14 q 747 9 723 -14 q 781 134 781 43 l 781 142 q 770 333 781 216 q 757 509 762 420 q 757 511 757 510 q 755 586 755 549 q 762 745 755 669 q 766 864 766 811 q 765 918 766 894 q 732 960 761 949 q 664 972 703 972 q 663 972 664 972 q 589 965 654 975 q 504 935 528 955 q 479 861 480 916 q 479 836 479 850 q 480 829 480 832 q 483 747 482 802 q 465 627 483 677 q 412 577 448 577 q 409 577 411 577 q 406 578 407 577 q 358 615 375 585 q 341 685 341 645 l 341 688 q 349 777 342 730 q 361 850 356 824 q 368 907 368 882 q 358 953 368 937 q 311 987 341 983 q 263 990 281 990 q 191 985 232 990 q 90 956 132 980 q 43 876 47 930 "},"I":{"ha":401,"x_min":27,"x_max":374,"o":"m 338 808 q 310 941 338 905 q 220 977 282 977 q 197 977 209 977 q 83 943 110 973 q 57 820 57 913 q 39 476 50 626 q 27 226 28 329 q 41 92 27 144 q 86 17 54 39 q 164 -5 117 -5 q 187 -3 176 -5 q 189 -3 189 -3 q 340 44 306 3 q 374 176 374 84 q 373 217 374 195 q 362 375 370 283 q 338 808 346 542 "},"J":{"ha":730,"x_min":27,"x_max":703,"o":"m 347 806 q 355 762 349 792 q 378 633 366 711 q 393 475 390 554 q 394 453 394 465 q 378 337 394 388 q 314 281 362 286 l 313 281 q 274 320 290 281 q 264 382 264 344 q 269 446 264 410 q 273 481 273 466 q 252 533 273 515 q 178 553 231 550 q 152 555 165 555 q 77 537 115 555 q 31 453 39 519 q 27 365 27 407 q 45 205 27 286 q 133 71 64 125 q 330 11 201 17 l 347 11 q 572 82 495 11 q 677 276 650 153 q 703 528 703 393 l 703 541 q 691 851 703 693 q 644 943 688 916 q 556 962 614 962 q 500 958 531 962 q 373 911 409 948 q 345 835 345 884 q 347 806 345 822 "},"K":{"ha":783,"x_min":26,"x_max":756,"o":"m 35 858 q 27 536 27 703 q 27 526 27 533 q 31 157 26 463 q 65 48 31 72 q 195 20 100 24 q 198 20 197 20 q 222 19 211 19 q 309 52 287 19 q 328 136 328 80 q 326 181 328 156 q 320 274 320 233 q 321 298 320 286 q 346 349 324 348 l 347 349 q 393 314 368 349 q 450 222 423 271 q 490 138 476 174 q 532 65 506 92 q 579 44 552 44 q 614 50 589 44 q 701 118 640 55 q 736 159 721 137 q 756 208 752 182 l 756 215 q 724 311 756 256 q 635 422 690 367 q 522 513 581 477 q 498 548 498 530 q 519 583 498 566 l 655 699 q 730 804 730 762 q 730 804 730 804 q 730 825 730 808 q 667 902 730 847 q 568 952 612 952 q 543 951 567 952 q 493 909 519 951 l 342 672 q 321 656 331 656 q 317 657 319 656 q 306 679 306 661 l 306 681 q 310 729 308 708 q 315 797 314 766 q 315 814 315 805 q 312 876 315 840 q 264 940 306 925 q 186 954 229 954 l 175 954 q 63 932 91 953 q 35 858 35 912 "},"L":{"ha":663,"x_min":27,"x_max":636,"o":"m 39 772 q 41 695 39 739 q 43 575 43 642 l 43 548 q 32 268 40 402 q 31 260 32 264 q 28 213 29 235 q 28 211 28 212 q 27 178 27 194 q 43 84 27 117 q 103 36 64 43 q 174 29 142 29 q 267 35 214 29 q 347 43 310 41 q 528 68 460 52 q 616 127 595 85 q 636 223 636 168 q 630 300 636 257 q 597 395 622 364 q 534 425 572 425 q 513 423 525 425 q 454 408 489 418 q 345 384 378 384 q 324 386 334 384 q 300 417 300 391 q 313 568 302 481 q 336 731 325 655 q 342 774 339 755 q 347 829 347 806 q 329 895 347 873 q 203 939 302 930 q 153 943 177 943 q 113 939 131 943 q 57 893 76 932 q 39 772 39 854 "},"M":{"ha":947,"x_min":27,"x_max":920,"o":"m 28 105 q 71 35 33 52 q 201 13 110 18 q 223 12 212 12 q 309 39 286 12 q 330 108 330 66 q 329 126 330 116 q 329 128 329 127 q 306 250 323 184 q 285 349 293 300 q 282 385 282 370 q 296 424 282 420 l 299 424 q 342 366 319 424 q 416 239 389 241 q 445 236 444 236 q 557 366 497 236 q 603 420 584 420 q 605 420 604 420 q 606 419 606 420 q 621 378 621 416 q 618 342 621 363 q 614 314 616 328 q 600 197 601 233 q 600 158 600 161 q 633 54 600 92 q 718 25 659 25 q 765 29 740 25 q 893 83 866 44 q 920 189 920 123 q 918 230 920 208 q 877 590 905 388 q 826 886 848 792 q 774 954 809 945 q 714 961 740 961 q 669 957 693 961 q 561 895 591 945 q 513 768 530 843 q 500 724 508 747 q 456 633 475 633 q 448 636 452 633 q 418 713 433 647 q 410 753 413 734 q 407 766 408 760 q 385 854 398 817 q 337 916 372 892 q 234 949 302 941 q 204 951 218 951 q 78 831 98 951 q 53 599 66 753 q 34 323 40 445 q 27 146 27 202 q 28 105 27 121 "},"N":{"ha":872,"x_min":27,"x_max":845,"o":"m 149 916 q 72 878 93 916 q 47 786 51 840 q 33 566 39 704 q 27 326 27 429 q 28 234 27 279 q 29 205 29 218 q 37 106 29 145 q 78 45 44 67 q 186 16 112 23 q 222 14 205 14 q 301 33 275 14 q 338 95 335 59 q 341 155 341 131 q 338 226 341 188 q 334 279 336 252 l 334 281 q 355 335 334 330 q 360 336 357 336 q 396 300 378 336 q 427 221 414 258 q 472 121 447 164 q 545 55 496 79 q 684 31 593 32 q 785 50 754 31 q 826 101 817 68 q 837 174 836 133 q 845 428 845 305 l 845 596 q 844 839 845 732 l 844 862 q 815 943 844 923 q 743 959 793 959 q 713 958 730 959 q 709 958 711 958 q 606 936 633 955 q 577 856 577 917 l 577 847 q 579 784 578 828 q 583 667 581 725 q 584 646 583 656 q 585 571 585 602 q 584 525 585 547 q 559 462 581 462 q 555 463 557 462 q 500 519 529 468 q 450 617 477 562 q 363 781 408 703 q 279 889 319 860 q 222 910 254 905 q 159 915 191 915 q 149 916 155 915 "},"O":{"ha":893,"x_min":27,"x_max":866,"o":"m 27 463 q 60 268 27 349 q 147 134 92 187 q 267 52 201 81 q 401 15 332 23 q 464 12 433 12 q 645 54 568 12 q 801 212 745 111 q 861 386 856 314 q 866 480 866 458 q 836 670 866 578 q 705 879 791 803 q 469 961 618 954 q 452 962 461 962 q 313 937 382 962 q 170 849 235 909 q 66 693 104 789 q 27 463 27 597 m 589 551 q 598 486 598 515 q 584 416 598 453 q 528 351 569 378 q 435 321 481 321 q 360 341 408 321 q 296 445 311 361 q 294 483 294 465 q 325 598 294 547 q 410 666 355 648 q 451 673 431 673 q 525 651 484 673 q 589 551 566 629 "},"P":{"ha":751,"x_min":27,"x_max":724,"o":"m 218 -8 q 321 25 290 2 q 355 79 351 48 q 359 137 359 110 q 357 189 359 161 q 354 282 354 231 q 356 312 354 300 q 368 332 358 324 q 401 342 378 339 q 646 456 566 374 q 724 651 724 538 l 724 657 q 674 821 722 758 q 553 919 627 884 q 394 968 479 954 q 233 986 310 983 q 231 986 233 986 q 202 987 216 987 q 87 958 127 987 q 36 830 39 923 q 27 405 27 618 q 29 192 27 298 l 30 177 l 30 167 q 39 56 30 99 q 79 -2 48 10 q 145 -14 110 -14 q 218 -8 177 -14 m 514 663 q 483 600 511 628 q 416 564 454 573 q 395 561 406 561 q 343 578 370 561 q 309 653 317 595 q 309 672 309 663 q 334 743 309 722 q 389 764 358 764 q 423 760 397 764 q 481 729 448 756 q 514 663 513 702 "},"Q":{"ha":933,"x_min":27,"x_max":906,"o":"m 27 543 q 75 283 27 391 q 400 54 177 67 q 427 53 414 53 q 576 78 508 53 q 602 86 593 83 q 614 89 610 89 q 621 90 618 90 q 631 87 628 90 q 649 70 639 82 l 665 51 q 714 -1 690 19 q 765 -22 739 -22 q 775 -21 770 -22 q 850 31 808 -17 q 903 114 900 91 q 906 144 906 137 q 890 193 906 174 q 845 235 871 218 q 821 261 827 249 q 815 281 815 273 q 823 309 815 294 q 871 512 871 406 q 869 559 871 536 q 784 804 856 693 q 619 954 712 915 q 450 994 527 994 q 317 975 387 994 q 174 902 240 952 q 68 763 108 852 q 27 543 29 675 m 582 608 q 588 551 588 580 q 580 481 588 524 q 538 400 571 439 q 456 363 506 363 l 450 363 q 341 411 381 370 q 292 510 300 452 q 290 541 290 526 q 308 628 290 585 q 396 714 338 692 q 450 725 424 725 q 522 705 480 725 q 582 608 563 686 "},"R":{"ha":840,"x_min":27,"x_max":813,"o":"m 327 998 q 273 1000 298 1000 q 116 971 176 1000 q 34 821 40 936 q 28 560 28 675 q 27 420 27 444 q 31 127 27 248 q 68 2 33 30 q 162 -26 103 -26 q 216 -22 186 -26 q 335 9 301 -16 q 369 98 369 35 q 368 117 369 107 q 354 207 364 165 q 345 252 348 231 q 344 273 344 264 q 359 313 344 303 q 368 315 363 315 q 409 278 385 315 q 468 155 439 227 q 502 81 486 115 q 564 9 538 9 q 591 9 591 9 q 707 44 642 9 q 804 117 795 87 q 813 159 813 148 q 774 242 813 199 q 676 343 730 292 q 607 414 633 385 q 587 450 587 437 l 587 451 q 608 483 589 465 q 689 590 665 537 q 713 696 713 642 q 710 741 713 718 q 636 883 695 827 q 494 966 576 938 q 327 998 412 993 m 482 704 q 451 639 481 667 q 396 608 420 612 q 364 604 372 604 q 311 624 335 604 q 288 696 288 646 q 288 715 288 706 q 321 789 296 772 q 368 806 345 806 q 390 804 380 806 q 453 768 426 795 q 482 704 479 741 "},"S":{"ha":795,"x_min":27,"x_max":768,"o":"m 70 722 q 99 586 70 636 q 182 507 130 534 q 295 458 233 479 q 359 433 327 446 q 405 397 397 416 q 412 369 412 379 q 404 344 412 356 q 351 323 389 325 q 193 351 267 327 q 131 361 159 361 q 64 335 88 361 q 27 204 27 292 l 27 198 q 52 93 27 133 q 119 32 77 53 q 213 3 161 11 q 319 -5 265 -5 l 330 -5 q 498 14 413 -5 q 659 86 589 35 q 754 224 729 137 q 768 324 768 279 q 749 417 768 377 q 634 538 712 490 q 463 623 555 585 q 409 662 420 642 q 397 692 397 682 q 406 714 397 704 q 469 732 421 732 l 475 732 q 618 695 551 724 q 682 682 657 682 q 726 699 712 682 q 747 774 747 725 q 746 800 747 787 q 746 802 746 801 q 717 892 744 849 q 622 957 689 935 q 503 978 551 977 l 454 978 q 279 954 364 978 q 132 875 191 929 q 70 730 74 820 l 70 722 "},"T":{"ha":821,"x_min":27,"x_max":793,"o":"m 551 613 q 601 639 576 635 q 647 644 625 644 l 660 644 q 673 643 667 643 q 726 650 701 643 q 775 704 756 660 q 793 850 793 748 l 793 859 q 758 970 793 944 q 622 997 721 997 l 572 997 q 407 994 493 997 q 398 993 403 994 q 227 985 294 989 q 194 983 207 984 q 85 964 123 980 q 37 911 46 947 q 27 833 27 875 q 30 772 27 806 q 62 683 36 701 q 137 661 87 664 q 163 656 150 659 q 174 655 169 656 q 246 625 221 649 q 271 538 271 601 l 271 526 q 245 302 262 403 q 228 163 228 201 q 228 125 228 126 q 269 15 228 53 q 422 -24 312 -24 q 545 6 511 -24 q 580 61 579 36 q 581 89 581 86 q 570 188 581 135 q 569 194 570 191 q 568 204 568 199 q 547 341 559 254 q 533 465 535 422 q 532 518 531 508 q 532 520 532 519 q 551 613 532 589 "},"U":{"ha":825,"x_min":27,"x_max":798,"o":"m 398 -1 q 640 83 551 1 q 762 293 727 165 q 798 555 798 420 l 798 566 q 769 823 795 707 q 713 944 749 918 q 633 970 678 970 q 596 967 616 970 q 508 932 542 961 q 473 831 473 902 q 479 680 474 764 q 486 514 486 589 q 484 429 486 469 q 455 351 477 372 q 417 331 433 331 q 398 336 408 331 q 363 412 372 352 q 359 531 359 467 q 361 630 359 579 q 378 844 369 751 q 378 846 378 845 q 379 872 379 860 q 344 959 379 941 q 275 974 317 974 q 224 969 252 974 q 79 906 115 958 q 33 712 42 854 q 27 574 27 646 q 30 479 27 528 q 73 250 37 357 q 187 73 109 141 q 398 -1 265 5 "},"V":{"ha":936,"x_min":27,"x_max":909,"o":"m 34 802 q 96 566 52 707 q 189 294 140 424 q 269 105 238 164 q 356 12 311 31 q 433 -6 401 -6 q 490 4 461 -6 q 600 86 551 25 q 713 298 649 153 q 830 595 776 444 q 904 832 884 747 q 909 873 909 855 q 901 912 909 897 q 850 947 884 938 q 768 956 816 956 q 738 957 752 957 q 626 931 663 957 q 570 808 582 900 q 547 686 564 770 q 509 533 528 602 q 484 484 494 488 q 470 481 472 481 q 437 533 452 481 q 415 642 425 581 q 397 757 405 702 q 381 849 387 819 q 321 957 363 935 q 212 979 279 979 q 179 978 196 979 q 177 978 178 978 q 50 937 71 974 q 27 859 27 900 q 34 802 27 833 "},"W":{"ha":1042,"x_min":27,"x_max":1015,"o":"m 188 970 q 56 939 84 970 q 27 849 27 908 q 31 800 27 828 q 86 471 49 640 q 163 145 124 302 q 204 56 175 85 q 322 18 233 26 q 324 18 323 18 q 347 17 336 17 q 421 36 395 17 q 463 98 452 60 q 476 176 473 136 q 482 223 478 202 q 511 273 494 273 q 538 222 530 273 l 541 205 q 560 111 547 157 q 606 33 573 64 q 701 3 638 3 l 704 3 q 817 33 783 3 q 870 141 851 62 q 943 446 904 267 q 1005 768 981 625 q 1015 851 1015 817 q 1004 911 1015 889 q 895 953 984 953 l 863 953 q 808 948 834 953 q 750 916 774 943 q 716 827 726 889 l 705 758 q 701 729 703 743 q 684 618 692 673 q 665 564 677 570 q 650 559 653 559 q 610 599 633 559 q 555 676 574 674 q 533 678 535 678 q 460 594 498 678 q 439 559 448 568 q 424 551 430 551 q 412 557 418 551 q 395 608 401 568 q 392 634 393 621 q 372 783 382 705 q 358 895 363 864 q 309 958 349 945 q 215 970 269 970 q 188 970 202 970 "},"X":{"ha":911,"x_min":27,"x_max":884,"o":"m 423 746 q 385 857 397 810 q 357 932 373 904 q 313 966 340 960 q 261 971 285 971 q 180 964 228 971 q 176 964 178 964 q 172 963 174 964 q 100 950 138 959 q 44 924 61 941 q 27 889 27 907 q 34 858 27 875 q 109 739 56 811 q 216 599 163 667 q 260 542 241 567 q 265 536 263 538 q 292 493 291 505 q 292 484 292 488 q 293 478 293 479 q 274 428 293 458 q 168 290 234 368 q 75 174 113 227 q 49 104 49 138 q 55 73 49 87 q 159 12 73 26 q 248 5 212 5 q 285 7 269 5 q 353 59 326 16 q 414 195 378 102 l 421 212 q 446 256 437 253 q 456 258 454 258 q 485 220 470 258 q 492 201 489 211 q 552 64 524 113 q 608 9 579 16 q 655 1 638 1 q 751 18 695 1 q 861 66 838 41 q 884 111 884 90 q 854 186 884 142 q 759 316 815 246 q 675 418 703 385 q 639 473 639 458 q 639 488 639 487 q 669 553 639 515 q 682 571 675 562 q 701 597 690 583 q 758 675 727 633 q 780 706 768 690 q 857 816 823 766 q 882 875 882 850 q 877 895 882 886 q 783 949 862 924 q 694 966 730 966 q 667 964 679 966 q 602 919 626 955 q 553 831 576 884 q 528 777 542 806 q 523 768 525 772 q 506 736 515 751 q 477 702 489 705 q 473 701 475 701 q 465 699 465 699 q 423 746 446 699 "},"Y":{"ha":914,"x_min":27,"x_max":887,"o":"m 155 964 q 44 901 60 931 q 27 852 27 870 q 57 774 27 817 l 267 475 q 304 406 300 427 q 308 369 308 385 q 306 343 308 356 q 304 315 305 330 q 288 203 300 260 q 275 117 277 146 q 274 81 273 88 q 274 80 274 81 q 302 5 274 33 q 385 -19 327 -19 q 414 -18 399 -19 q 416 -18 415 -18 q 574 39 530 -5 q 618 119 617 83 q 618 158 618 155 q 605 304 618 224 q 592 404 597 353 q 591 429 591 417 q 601 480 591 461 q 656 545 615 506 q 825 747 749 641 l 851 782 q 887 876 887 831 q 883 905 887 891 q 782 982 867 963 q 691 992 729 992 q 640 986 662 992 q 569 929 593 971 q 525 821 545 886 q 490 721 511 775 q 457 676 473 676 q 453 677 455 676 q 420 733 436 684 q 393 813 405 774 q 353 922 376 878 q 301 976 330 967 q 253 985 271 985 q 155 964 214 985 "},"Z":{"ha":838,"x_min":27,"x_max":811,"o":"m 573 469 q 661 556 621 519 q 755 656 720 610 q 794 760 791 702 q 796 815 796 790 q 784 910 796 878 q 726 962 766 956 q 639 968 685 968 q 571 966 608 968 q 445 964 516 964 q 339 968 392 964 q 246 972 290 972 q 203 971 225 972 q 103 935 141 967 q 65 821 65 902 q 77 692 66 730 q 110 648 86 654 q 161 643 134 643 q 204 645 180 643 q 244 647 222 646 q 278 649 262 648 q 333 651 312 651 q 367 649 355 651 q 380 637 380 647 q 373 620 380 631 q 297 535 355 594 q 247 484 273 510 q 146 378 195 432 q 63 267 96 323 q 27 156 31 211 l 27 142 q 57 36 27 65 q 155 3 90 5 q 250 0 202 0 q 333 2 290 0 q 425 5 378 4 q 529 4 477 5 q 593 3 562 3 q 673 5 635 3 q 764 16 734 7 q 801 54 792 25 q 810 147 809 83 q 811 178 811 163 q 799 272 811 243 q 759 313 784 309 q 711 317 733 317 q 661 314 688 317 q 564 309 619 309 l 550 309 q 483 326 486 312 q 480 345 480 340 q 501 391 480 365 q 556 452 527 424 q 573 469 566 461 "},"[":{"ha":648,"x_min":68,"x_max":580,"o":"m 397 919 q 407 956 397 947 q 433 964 416 964 q 443 964 438 964 q 457 962 450 963 q 470 961 464 962 q 520 957 499 957 q 561 964 542 957 q 580 1028 580 970 q 559 1085 580 1078 q 505 1093 540 1093 q 483 1093 495 1093 q 458 1093 471 1093 q 429 1093 444 1093 q 392 1094 410 1093 q 359 1095 376 1095 q 291 1098 323 1098 q 212 1093 256 1098 q 135 1048 168 1088 q 96 910 102 1007 q 69 176 74 432 q 68 134 68 154 q 94 -45 68 16 q 174 -116 121 -104 q 289 -126 227 -126 q 346 -125 315 -126 q 456 -123 396 -123 q 485 -123 472 -123 q 511 -123 500 -123 q 560 -115 545 -123 q 575 -64 575 -107 q 575 -63 575 -64 q 575 -61 575 -62 q 576 -45 576 -52 q 572 -16 576 -27 q 548 -2 568 -5 q 482 0 528 0 q 420 12 429 0 q 412 44 412 24 q 413 60 412 52 q 413 62 413 61 q 416 222 416 141 q 407 572 416 313 q 407 576 407 574 q 397 919 397 750 "},"\\":{"ha":789,"x_min":68,"x_max":721,"o":"m 439 543 q 308 787 359 683 q 208 965 243 923 q 146 1007 174 1007 q 98 985 123 1007 q 68 923 68 959 q 86 860 68 904 q 180 707 104 817 q 335 460 246 610 q 469 208 414 320 q 574 17 535 69 q 644 -35 613 -35 q 684 -18 664 -35 q 721 54 721 14 q 704 117 721 73 q 606 277 687 161 q 439 543 536 380 "},"]":{"ha":647,"x_min":68,"x_max":579,"o":"m 250 919 q 241 572 250 748 q 233 357 235 442 q 231 229 231 271 q 235 62 231 145 q 235 46 235 54 q 227 12 235 24 q 165 0 218 0 q 100 -3 120 0 q 76 -16 80 -5 q 72 -44 72 -27 q 73 -61 72 -51 q 73 -62 73 -62 q 73 -64 73 -63 q 87 -115 73 -107 q 136 -123 102 -123 q 163 -123 149 -123 q 192 -123 176 -123 q 302 -125 252 -123 q 359 -126 332 -126 q 473 -116 421 -126 q 553 -45 527 -106 q 579 138 579 16 q 578 176 579 157 q 551 910 574 432 q 513 1048 547 1007 q 435 1093 479 1088 q 356 1098 392 1098 q 288 1095 323 1098 q 257 1094 273 1095 q 218 1093 238 1093 q 190 1093 203 1093 q 165 1093 176 1093 q 142 1093 153 1093 q 88 1085 108 1093 q 68 1028 68 1078 q 87 964 68 970 q 127 957 106 957 q 178 961 149 957 q 191 962 184 962 q 205 964 197 963 q 215 964 210 964 q 241 956 233 964 q 250 919 250 947 "},"_":{"ha":817,"x_min":68,"x_max":749,"o":"m 389 16 q 465 13 428 16 q 537 5 503 9 q 623 -3 598 -3 q 626 -3 624 -3 q 628 -3 627 -3 q 633 -3 631 -3 q 649 -3 648 -3 q 721 16 694 -3 q 749 86 749 35 q 722 153 749 135 q 649 170 695 170 l 646 170 q 538 161 597 170 q 530 161 534 161 q 466 154 498 157 q 401 151 434 151 q 271 161 334 151 q 186 168 224 168 q 134 163 157 168 q 69 90 79 155 q 69 88 69 90 q 68 69 68 79 q 85 20 68 36 q 130 1 107 1 q 131 1 131 1 q 158 1 154 1 q 251 7 198 1 q 389 16 316 16 "},"a":{"ha":857,"x_min":27,"x_max":831,"o":"m 659 788 q 592 921 639 874 q 448 985 545 968 q 411 987 429 987 q 292 932 340 987 q 217 775 245 878 q 130 515 171 624 q 54 280 87 399 q 28 146 32 203 q 27 132 27 140 q 58 50 27 85 q 174 -5 87 14 q 262 -16 227 -16 q 311 -8 284 -16 q 351 34 338 0 q 368 123 364 68 q 388 237 373 174 q 435 291 404 290 l 436 291 q 478 234 468 291 q 483 156 483 192 l 483 150 q 494 71 483 104 q 551 20 504 37 q 664 7 588 7 q 704 7 684 7 q 804 43 777 12 q 830 119 830 74 q 830 120 830 119 q 829 149 831 124 q 814 222 827 174 q 728 541 777 371 q 659 788 688 681 m 429 686 q 466 656 450 685 q 487 586 481 628 q 489 559 489 573 q 480 506 489 534 q 439 468 471 477 q 418 466 427 466 q 374 489 387 466 q 361 543 361 512 q 365 582 361 553 q 387 646 368 610 q 429 686 406 683 "},"b":{"ha":828,"x_min":27,"x_max":801,"o":"m 328 997 q 128 943 189 986 q 57 831 68 901 q 49 720 49 781 q 50 669 49 695 q 50 667 50 668 q 52 608 52 638 q 46 479 52 548 q 27 206 27 307 q 65 56 27 106 q 196 -14 102 5 q 311 -26 249 -26 q 414 -20 345 -26 q 582 28 484 -13 q 742 146 680 69 q 801 330 801 220 l 801 340 q 747 490 795 435 q 618 566 699 545 q 585 589 587 576 l 585 591 q 602 626 585 603 q 651 737 637 673 q 655 777 655 756 q 632 880 655 825 q 557 958 607 931 q 446 993 508 985 q 366 998 405 998 q 328 997 347 998 m 412 772 q 372 700 412 718 q 318 688 346 688 q 275 694 304 688 q 240 728 246 701 l 240 730 q 279 800 240 774 q 355 826 316 826 q 382 825 359 826 q 412 775 405 824 l 412 772 m 459 355 q 425 273 456 301 q 354 243 395 246 q 341 243 347 243 q 278 259 308 243 q 240 310 248 275 q 240 312 240 311 q 239 331 239 321 q 267 397 239 372 q 341 427 295 422 q 357 427 349 427 q 426 410 393 427 q 459 355 458 393 "},"c":{"ha":737,"x_min":27,"x_max":710,"o":"m 28 401 q 112 172 39 267 q 286 39 184 77 q 484 1 386 1 q 564 5 522 1 q 678 72 646 18 q 710 188 710 126 l 710 198 q 682 319 708 267 q 618 379 656 372 l 613 379 q 528 363 580 379 q 445 345 475 349 q 408 342 415 342 q 407 342 407 342 q 326 375 359 342 q 280 516 286 411 l 280 519 q 323 646 280 608 q 413 684 364 684 l 418 684 q 530 654 475 680 q 612 631 585 631 q 625 633 619 631 q 690 684 672 644 q 708 769 708 724 l 707 783 q 686 884 705 837 q 627 953 664 934 q 543 972 589 972 l 537 972 q 258 900 376 969 q 83 713 140 831 q 27 453 27 597 q 28 401 27 428 "},"d":{"ha":817,"x_min":27,"x_max":789,"o":"m 33 757 q 27 410 27 581 q 28 298 27 353 q 28 208 28 253 l 28 205 q 98 1 28 42 q 178 -17 130 -17 q 318 9 236 -17 q 543 124 437 46 q 717 311 649 202 q 789 547 784 419 l 789 562 q 748 752 789 675 q 628 885 703 835 q 464 959 554 935 q 318 989 368 987 q 262 989 268 989 q 109 941 172 989 q 33 757 41 889 m 441 566 q 367 409 416 457 q 298 373 331 373 q 260 385 288 373 q 227 484 233 395 q 227 526 227 505 q 228 584 227 556 q 272 690 235 658 q 342 719 305 719 q 373 716 348 719 q 425 675 397 713 q 444 606 444 648 q 441 566 444 587 "},"e":{"ha":678,"x_min":27,"x_max":651,"o":"m 621 854 q 570 960 620 932 q 431 987 520 987 q 406 986 419 987 q 254 973 327 985 q 130 922 180 961 q 65 798 79 882 q 54 617 54 712 q 52 505 54 564 q 41 391 48 451 q 29 276 31 318 q 27 222 27 234 q 41 115 27 165 q 109 21 58 55 q 253 -14 159 -14 l 260 -14 q 387 1 309 -13 q 534 38 463 14 q 632 98 604 62 q 651 161 650 129 l 651 196 q 635 309 651 256 q 584 374 618 366 q 555 376 571 376 q 517 373 537 376 q 445 357 481 367 q 336 340 385 340 l 332 340 q 258 394 280 340 q 251 429 251 412 q 252 439 251 435 q 273 472 253 462 q 336 483 302 483 l 348 483 q 405 492 382 483 q 433 542 431 502 q 408 597 432 586 q 353 609 385 608 q 298 619 324 610 q 281 656 281 629 l 281 658 q 296 717 282 688 q 332 751 310 745 q 355 753 342 753 q 387 750 370 753 q 447 735 416 745 q 541 716 517 716 q 578 722 560 716 q 616 772 610 738 q 621 836 621 807 q 621 852 621 845 l 621 854 "},"f":{"ha":669,"x_min":27,"x_max":642,"o":"m 376 981 q 332 982 353 982 q 126 954 195 982 q 43 855 58 926 q 33 734 33 806 q 35 669 33 704 q 36 560 36 619 l 36 519 q 31 362 34 433 q 27 224 27 285 q 33 106 27 170 q 80 11 37 42 q 159 -9 107 -9 q 225 -3 189 -9 q 347 55 311 10 q 372 140 372 86 q 367 189 372 162 q 342 274 358 237 q 326 328 332 304 q 325 342 325 336 q 333 371 325 358 q 378 401 351 394 q 433 408 404 408 q 496 418 469 408 q 525 471 522 429 l 525 473 q 500 528 525 517 q 441 538 475 538 l 431 538 q 375 545 403 538 q 330 580 347 551 q 320 619 320 598 q 323 647 320 627 q 351 691 327 667 q 415 715 374 715 q 498 698 460 712 q 559 684 532 686 l 562 684 q 608 711 588 684 q 639 813 627 739 q 642 848 642 831 q 632 913 642 880 q 589 960 622 948 q 399 981 497 983 q 376 981 389 981 "},"g":{"ha":823,"x_min":27,"x_max":795,"o":"m 680 966 q 573 986 635 986 q 538 985 571 986 q 439 970 504 985 q 327 935 374 956 q 131 769 205 880 q 35 526 57 659 q 27 423 27 474 q 54 247 27 345 q 175 69 81 148 q 425 -13 269 -10 q 625 40 535 -12 q 762 172 715 91 q 793 300 786 214 q 795 376 795 338 q 791 479 795 427 q 725 589 781 566 q 656 602 696 602 q 579 592 621 602 q 517 545 528 579 q 513 516 513 532 q 524 468 513 493 q 541 396 541 429 q 531 347 541 378 q 452 312 521 315 q 355 357 387 314 q 317 460 323 401 q 315 494 315 477 q 326 570 315 534 q 404 684 352 653 q 514 713 454 713 q 627 705 574 713 q 686 699 661 700 l 692 699 q 722 707 713 699 q 741 780 741 730 q 741 813 741 784 q 724 897 740 843 q 680 966 707 951 "},"h":{"ha":808,"x_min":27,"x_max":781,"o":"m 43 876 q 39 718 39 805 q 40 641 39 681 q 41 529 41 585 l 41 473 q 33 254 39 363 q 27 74 28 155 q 64 -5 28 8 q 138 -18 100 -18 q 183 -14 159 -18 q 310 18 280 -5 q 340 87 340 41 q 338 114 340 100 q 323 188 334 150 q 307 282 309 237 q 339 356 309 340 q 390 372 369 372 q 424 364 408 372 q 466 298 463 349 l 470 181 q 473 89 472 135 q 517 16 477 38 q 606 -10 556 -5 q 662 -14 637 -14 q 747 9 723 -14 q 781 134 781 43 l 781 142 q 770 333 781 216 q 757 509 762 420 q 757 511 757 510 q 755 586 755 549 q 762 745 755 669 q 766 864 766 811 q 765 918 766 894 q 732 960 761 949 q 664 972 703 972 q 663 972 664 972 q 589 965 654 975 q 504 935 528 955 q 479 861 480 916 q 479 836 479 850 q 480 829 480 832 q 483 747 482 802 q 465 627 483 677 q 412 577 448 577 q 409 577 411 577 q 406 578 407 577 q 358 615 375 585 q 341 685 341 645 l 341 688 q 349 777 342 730 q 361 850 356 824 q 368 907 368 882 q 358 953 368 937 q 311 987 341 983 q 263 990 281 990 q 191 985 232 990 q 90 956 132 980 q 43 876 47 930 "},"i":{"ha":408,"x_min":27,"x_max":374,"o":"m 338 808 q 310 941 338 905 q 220 977 282 977 q 197 977 209 977 q 83 943 110 973 q 57 820 57 913 q 39 476 50 626 q 27 226 28 329 q 41 92 27 144 q 86 17 54 39 q 164 -5 117 -5 q 187 -3 176 -5 q 189 -3 189 -3 q 340 44 306 3 q 374 176 374 84 q 373 217 374 195 q 362 375 370 283 q 338 808 346 542 "},"j":{"ha":730,"x_min":27,"x_max":703,"o":"m 347 806 q 355 762 349 792 q 378 633 366 711 q 393 475 390 554 q 394 453 394 465 q 378 337 394 388 q 314 281 362 286 l 313 281 q 274 320 290 281 q 264 382 264 344 q 269 446 264 410 q 273 481 273 466 q 252 533 273 515 q 178 553 231 550 q 152 555 165 555 q 77 537 115 555 q 31 453 39 519 q 27 365 27 407 q 45 205 27 286 q 133 71 64 125 q 330 11 201 17 l 347 11 q 572 82 495 11 q 677 276 650 153 q 703 528 703 393 l 703 541 q 691 851 703 693 q 644 943 688 916 q 556 962 614 962 q 500 958 531 962 q 373 911 409 948 q 345 835 345 884 q 347 806 345 822 "},"k":{"ha":783,"x_min":26,"x_max":756,"o":"m 35 858 q 27 536 27 703 q 27 526 27 533 q 31 157 26 463 q 65 48 31 72 q 195 20 100 24 q 198 20 197 20 q 222 19 211 19 q 309 52 287 19 q 328 136 328 80 q 326 181 328 156 q 320 274 320 233 q 321 298 320 286 q 346 349 324 348 l 347 349 q 393 314 368 349 q 450 222 423 271 q 490 138 476 174 q 532 65 506 92 q 579 44 552 44 q 614 50 589 44 q 701 118 640 55 q 736 159 721 137 q 756 208 752 182 l 756 215 q 724 311 756 256 q 635 422 690 367 q 522 513 581 477 q 498 548 498 530 q 519 583 498 566 l 655 699 q 730 804 730 762 q 730 804 730 804 q 730 825 730 808 q 667 902 730 847 q 568 952 612 952 q 543 951 567 952 q 493 909 519 951 l 342 672 q 321 656 331 656 q 317 657 319 656 q 306 679 306 661 l 306 681 q 310 729 308 708 q 315 797 314 766 q 315 814 315 805 q 312 876 315 840 q 264 940 306 925 q 186 954 229 954 l 175 954 q 63 932 91 953 q 35 858 35 912 "},"l":{"ha":663,"x_min":27,"x_max":636,"o":"m 39 772 q 41 695 39 739 q 43 575 43 642 l 43 548 q 32 268 40 402 q 31 260 32 264 q 28 213 29 235 q 28 211 28 212 q 27 178 27 194 q 43 84 27 117 q 103 36 64 43 q 174 29 142 29 q 267 35 214 29 q 347 43 310 41 q 528 68 460 52 q 616 127 595 85 q 636 223 636 168 q 630 300 636 257 q 597 395 622 364 q 534 425 572 425 q 513 423 525 425 q 454 408 489 418 q 345 384 378 384 q 324 386 334 384 q 300 417 300 391 q 313 568 302 481 q 336 731 325 655 q 342 774 339 755 q 347 829 347 806 q 329 895 347 873 q 203 939 302 930 q 153 943 177 943 q 113 939 131 943 q 57 893 76 932 q 39 772 39 854 "},"m":{"ha":947,"x_min":27,"x_max":920,"o":"m 28 105 q 71 35 33 52 q 201 13 110 18 q 223 12 212 12 q 309 39 286 12 q 330 108 330 66 q 329 126 330 116 q 329 128 329 127 q 306 250 323 184 q 285 349 293 300 q 282 385 282 370 q 296 424 282 420 l 299 424 q 342 366 319 424 q 416 239 389 241 q 445 236 444 236 q 557 366 497 236 q 603 420 584 420 q 605 420 604 420 q 606 419 606 420 q 621 378 621 416 q 618 342 621 363 q 614 314 616 328 q 601 202 602 239 q 600 159 599 165 q 600 158 600 158 q 633 54 600 92 q 718 25 659 25 q 765 29 740 25 q 893 83 866 44 q 920 189 920 123 q 918 230 920 208 q 877 590 905 388 q 826 886 848 792 q 774 954 809 945 q 714 961 740 961 q 669 957 693 961 q 561 895 591 945 q 513 768 530 843 q 500 724 508 747 q 456 633 475 633 q 448 636 452 633 q 418 713 433 647 q 410 753 413 734 q 407 766 408 760 q 385 854 398 817 q 337 916 372 892 q 234 949 302 941 q 204 951 218 951 q 78 831 98 951 q 53 599 66 753 q 34 323 40 445 q 27 146 27 202 q 28 105 27 121 "},"n":{"ha":872,"x_min":27,"x_max":845,"o":"m 149 916 q 72 878 93 916 q 47 786 51 840 q 33 566 39 704 q 27 326 27 429 q 28 234 27 279 q 29 205 29 218 q 37 106 29 145 q 78 45 44 67 q 186 16 112 23 q 222 14 205 14 q 301 33 275 14 q 338 95 335 59 q 341 155 341 131 q 338 226 341 188 q 334 279 336 252 l 334 281 q 355 335 334 330 q 360 336 357 336 q 396 300 378 336 q 427 221 414 258 q 472 121 447 164 q 545 55 496 79 q 684 31 593 32 q 785 50 754 31 q 826 101 817 68 q 837 174 836 133 q 845 428 845 305 l 845 596 q 844 839 845 732 l 844 862 q 815 943 844 923 q 743 959 793 959 q 713 958 730 959 q 709 958 711 958 q 606 936 633 955 q 577 856 577 917 l 577 847 q 579 784 578 828 q 583 667 581 725 q 584 646 583 656 q 585 571 585 602 q 584 525 585 547 q 559 462 581 462 q 555 463 557 462 q 500 519 529 468 q 450 617 477 562 q 363 781 408 703 q 279 889 319 860 q 222 910 254 905 q 159 915 191 915 q 149 916 155 915 "},"o":{"ha":893,"x_min":27,"x_max":866,"o":"m 27 463 q 60 268 27 349 q 147 134 93 187 q 267 52 201 81 q 401 15 333 23 q 464 12 433 12 q 645 54 568 12 q 801 212 745 111 q 861 386 856 314 q 866 480 866 458 q 836 670 866 578 q 705 879 791 803 q 469 961 618 954 q 452 962 461 962 q 313 937 382 962 q 170 849 235 909 q 66 693 104 789 q 27 463 27 597 m 589 551 q 598 486 598 515 q 584 416 598 453 q 528 351 569 378 q 435 321 481 321 q 360 341 408 321 q 296 445 311 361 q 294 483 294 465 q 325 598 294 547 q 410 666 355 648 q 451 673 431 673 q 525 651 484 673 q 589 551 566 629 "},"p":{"ha":751,"x_min":27,"x_max":724,"o":"m 218 -8 q 321 25 290 2 q 355 79 351 48 q 359 137 359 110 q 357 189 359 161 q 354 282 354 231 q 356 312 354 300 q 368 332 358 324 q 401 342 378 339 q 646 456 566 374 q 724 651 724 538 l 724 657 q 674 821 722 758 q 553 919 627 884 q 394 968 479 954 q 233 986 310 983 q 231 986 233 986 q 202 987 216 987 q 87 958 127 987 q 36 830 39 923 q 27 405 27 618 q 29 192 27 298 l 30 177 l 30 167 q 39 56 30 99 q 79 -2 48 10 q 145 -14 110 -14 q 218 -8 177 -14 m 514 663 q 483 600 511 628 q 416 564 454 573 q 395 561 406 561 q 343 578 370 561 q 309 653 317 595 q 309 672 309 663 q 334 743 309 722 q 389 764 358 764 q 423 760 397 764 q 481 729 448 756 q 514 663 513 702 "},"q":{"ha":933,"x_min":27,"x_max":906,"o":"m 27 543 q 75 283 27 391 q 400 54 177 67 q 427 53 414 53 q 576 78 508 53 q 602 86 593 83 q 614 89 610 89 q 621 90 618 90 q 631 87 628 90 q 649 70 639 82 l 665 51 q 714 -1 690 19 q 765 -22 739 -22 q 775 -21 770 -22 q 850 31 808 -17 q 903 114 900 91 q 906 144 906 137 q 890 193 906 174 q 845 235 871 218 q 821 261 827 249 q 815 281 815 273 q 823 309 815 294 q 871 512 871 406 q 869 559 871 536 q 784 804 856 693 q 619 954 712 915 q 450 994 527 994 q 317 975 387 994 q 174 902 240 952 q 68 763 108 852 q 27 543 29 675 m 582 608 q 588 551 588 580 q 580 481 588 524 q 538 400 571 439 q 456 363 506 363 l 450 363 q 341 411 381 370 q 292 510 300 452 q 290 541 290 526 q 308 628 290 585 q 396 714 338 692 q 450 725 424 725 q 522 705 480 725 q 582 608 563 686 "},"r":{"ha":840,"x_min":27,"x_max":813,"o":"m 327 998 q 273 1000 298 1000 q 116 971 176 1000 q 34 821 40 936 q 28 560 28 675 q 27 420 27 444 q 31 127 27 248 q 68 2 33 30 q 162 -26 103 -26 q 216 -22 186 -26 q 335 9 301 -16 q 369 98 369 35 q 368 117 369 107 q 354 207 364 165 q 345 252 348 231 q 344 273 344 264 q 359 313 344 303 q 368 315 363 315 q 409 278 385 315 q 468 155 439 227 q 502 81 486 115 q 564 9 538 9 q 591 9 591 9 q 707 44 642 9 q 804 117 795 87 q 813 159 813 148 q 774 242 813 199 q 676 343 730 292 q 607 414 633 385 q 587 450 587 437 l 587 451 q 608 483 589 465 q 689 590 665 537 q 713 696 713 642 q 710 741 713 718 q 636 883 695 827 q 494 966 576 938 q 327 998 412 993 m 482 704 q 451 639 481 667 q 396 608 420 612 q 364 604 372 604 q 311 624 335 604 q 288 696 288 646 q 288 715 288 706 q 321 789 296 772 q 368 806 345 806 q 390 804 380 806 q 453 768 426 795 q 482 704 479 741 "},"s":{"ha":795,"x_min":27,"x_max":768,"o":"m 70 722 q 99 586 70 636 q 182 507 130 534 q 295 458 233 479 q 359 433 327 446 q 405 397 397 416 q 412 369 412 379 q 404 344 412 356 q 351 323 389 325 q 193 351 267 327 q 131 361 159 361 q 64 335 88 361 q 27 204 27 292 l 27 198 q 52 93 27 133 q 119 32 77 53 q 213 3 161 11 q 319 -5 265 -5 l 330 -5 q 498 14 413 -5 q 659 86 589 35 q 754 224 729 137 q 768 324 768 279 q 749 417 768 377 q 634 538 712 490 q 463 623 555 585 q 409 662 420 642 q 397 692 397 682 q 406 714 397 704 q 469 732 421 732 l 475 732 q 618 695 551 724 q 682 682 657 682 q 726 699 712 682 q 747 774 747 725 q 746 800 747 787 q 746 802 746 801 q 717 892 744 849 q 622 957 689 935 q 503 978 551 977 l 454 978 q 279 954 364 978 q 132 875 191 929 q 70 730 74 820 l 70 722 "},"t":{"ha":821,"x_min":27,"x_max":793,"o":"m 551 613 q 601 639 576 635 q 647 644 625 644 l 660 644 q 673 643 667 643 q 726 650 701 643 q 775 704 756 660 q 793 850 793 748 l 793 859 q 758 970 793 944 q 622 997 721 997 l 572 997 q 407 994 493 997 q 398 993 403 994 q 227 985 294 989 q 194 983 207 984 q 85 964 123 980 q 37 911 46 947 q 27 833 27 875 q 30 772 27 806 q 62 683 36 701 q 137 661 87 664 q 163 656 150 659 q 174 655 169 656 q 246 625 221 649 q 271 538 271 601 l 271 526 q 245 302 262 403 q 228 163 228 201 q 228 125 228 126 q 269 15 228 53 q 422 -24 312 -24 q 545 6 511 -24 q 580 61 579 36 q 581 89 581 86 q 570 188 581 135 q 569 194 570 191 q 568 204 568 199 q 547 341 559 254 q 533 465 535 422 q 532 518 531 508 q 532 520 532 519 q 551 613 532 589 "},"u":{"ha":825,"x_min":27,"x_max":798,"o":"m 398 -1 q 640 83 551 1 q 762 293 727 165 q 798 555 798 420 l 798 566 q 769 823 795 707 q 713 944 749 918 q 633 970 678 970 q 596 967 616 970 q 508 932 542 961 q 473 831 473 902 q 479 680 474 764 q 486 514 486 589 q 484 429 486 469 q 455 351 477 372 q 417 331 433 331 q 398 336 408 331 q 363 412 372 352 q 359 531 359 467 q 361 630 359 579 q 378 844 369 751 q 378 846 378 845 q 379 872 379 860 q 344 959 379 941 q 275 974 317 974 q 224 969 252 974 q 79 906 115 958 q 33 712 42 854 q 27 574 27 646 q 30 479 27 528 q 73 250 37 357 q 187 73 109 141 q 398 -1 265 5 "},"v":{"ha":936,"x_min":27,"x_max":909,"o":"m 34 802 q 96 566 52 707 q 189 294 140 424 q 269 105 238 164 q 356 12 311 31 q 433 -6 401 -6 q 490 4 461 -6 q 600 86 551 25 q 713 298 649 153 q 830 595 776 444 q 904 832 884 747 q 909 873 909 855 q 901 912 909 897 q 850 947 884 938 q 768 956 816 956 q 738 957 752 957 q 626 931 663 957 q 570 808 582 900 q 547 686 564 770 q 509 533 528 602 q 484 484 494 488 q 470 481 472 481 q 437 533 452 481 q 415 642 425 581 q 397 757 405 702 q 381 849 387 819 q 321 957 363 935 q 212 979 279 979 q 179 978 196 979 q 177 978 178 978 q 50 937 71 974 q 27 859 27 900 q 34 802 27 833 "},"w":{"ha":1042,"x_min":27,"x_max":1015,"o":"m 188 970 q 56 939 84 970 q 27 849 27 908 q 31 800 27 828 q 86 471 49 640 q 163 145 124 302 q 204 56 175 85 q 322 18 233 26 q 324 18 323 18 q 347 17 336 17 q 421 36 395 17 q 463 98 452 60 q 476 176 473 136 q 482 223 478 202 q 511 273 494 273 q 538 222 530 273 l 541 205 q 560 111 547 157 q 606 33 573 64 q 701 3 638 3 l 704 3 q 817 33 783 3 q 870 141 851 62 q 943 446 904 267 q 1005 768 981 625 q 1015 851 1015 817 q 1004 911 1015 889 q 895 953 984 953 l 863 953 q 808 948 834 953 q 750 916 774 943 q 716 827 726 889 l 705 758 q 701 729 703 743 q 684 618 692 673 q 665 564 677 570 q 650 559 653 559 q 610 599 633 559 q 555 676 574 674 q 533 678 535 678 q 460 594 498 678 q 439 559 448 568 q 424 551 430 551 q 412 557 418 551 q 395 608 401 568 q 392 634 393 621 q 372 783 382 705 q 358 895 363 864 q 309 958 349 945 q 215 970 269 970 q 188 970 202 970 "},"x":{"ha":911,"x_min":27,"x_max":884,"o":"m 423 746 q 385 857 397 810 q 357 932 373 904 q 313 966 340 960 q 261 971 285 971 q 180 964 228 971 q 176 964 178 964 q 172 963 174 964 q 100 950 138 959 q 44 924 61 941 q 27 889 27 907 q 34 858 27 875 q 109 739 56 811 q 216 599 163 667 q 260 542 241 567 q 265 536 263 538 q 292 493 291 505 q 292 484 292 488 q 293 478 293 479 q 274 428 293 458 q 168 290 234 368 q 75 174 113 227 q 49 104 49 138 q 55 73 49 87 q 159 12 73 26 q 248 5 212 5 q 285 7 269 5 q 353 59 326 16 q 414 195 378 102 l 421 212 q 446 256 437 253 q 456 258 454 258 q 485 220 470 258 q 492 201 489 211 q 552 64 524 113 q 608 9 579 16 q 655 1 638 1 q 751 18 695 1 q 861 66 838 41 q 884 111 884 90 q 854 186 884 142 q 759 316 815 246 q 675 418 703 385 q 639 473 639 458 q 639 488 639 487 q 669 553 639 515 q 682 571 675 562 q 701 597 690 583 q 758 675 727 633 q 780 706 768 690 q 857 816 823 766 q 882 875 882 850 q 877 895 882 886 q 783 949 862 924 q 694 966 730 966 q 667 964 679 966 q 602 919 626 955 q 553 831 576 884 q 528 777 542 806 q 523 768 525 772 q 506 736 515 751 q 477 702 489 705 q 473 701 475 701 q 465 699 465 699 q 423 746 446 699 "},"y":{"ha":914,"x_min":27,"x_max":887,"o":"m 155 964 q 44 901 60 931 q 27 852 27 870 q 57 774 27 817 l 267 475 q 304 406 300 427 q 308 369 308 385 q 306 343 308 356 q 304 315 305 330 q 288 203 300 260 q 275 117 277 146 q 274 81 273 88 q 274 80 274 81 q 302 5 274 33 q 385 -19 327 -19 q 414 -18 399 -19 q 416 -18 415 -18 q 574 39 530 -5 q 618 119 617 83 q 618 158 618 155 q 605 304 618 224 q 592 404 597 353 q 591 429 591 417 q 601 480 591 461 q 656 545 615 506 q 825 747 749 641 l 851 782 q 887 876 887 831 q 883 905 887 891 q 782 982 867 963 q 691 992 729 992 q 640 986 662 992 q 569 929 593 971 q 525 821 545 886 q 490 721 511 775 q 457 676 473 676 q 453 677 455 676 q 420 733 436 684 q 393 813 405 774 q 353 922 376 878 q 301 976 330 967 q 253 985 271 985 q 155 964 214 985 "},"z":{"ha":838,"x_min":27,"x_max":811,"o":"m 573 469 q 661 556 621 519 q 755 656 720 610 q 794 760 791 702 q 796 815 796 790 q 784 910 796 878 q 726 962 766 956 q 639 968 685 968 q 571 966 608 968 q 445 964 516 964 q 339 968 392 964 q 246 972 290 972 q 203 971 225 972 q 103 935 141 967 q 65 821 65 902 q 77 692 66 730 q 110 648 86 654 q 161 643 134 643 q 204 645 180 643 q 244 647 222 646 q 278 649 262 648 q 333 651 312 651 q 367 649 355 651 q 380 637 380 647 q 373 620 380 631 q 297 535 355 594 q 247 484 273 510 q 146 378 195 432 q 63 267 96 323 q 27 156 31 211 l 27 142 q 57 36 27 65 q 155 3 90 5 q 250 0 202 0 q 333 2 290 0 q 425 5 378 4 q 529 4 477 5 q 593 3 562 3 q 673 5 635 3 q 764 16 734 7 q 801 54 792 25 q 810 147 809 83 q 811 178 811 163 q 799 272 811 243 q 759 313 784 309 q 711 317 733 317 q 661 314 688 317 q 564 309 619 309 l 550 309 q 483 326 486 312 q 480 345 480 340 q 501 391 480 365 q 556 452 527 424 q 573 469 566 461 "},"{":{"ha":692,"x_min":68,"x_max":624,"o":"m 442 53 q 429 234 442 164 q 396 345 416 304 q 354 406 376 384 q 313 439 332 427 q 286 460 296 449 q 275 489 275 471 q 284 513 275 503 q 308 534 293 524 q 350 570 327 547 q 393 633 372 593 q 428 743 414 674 q 442 919 442 812 q 451 956 442 947 q 477 964 460 964 q 487 964 482 964 q 501 962 494 963 q 514 961 508 962 q 564 957 543 957 q 605 964 586 957 q 624 1028 624 970 q 604 1085 624 1078 q 550 1093 585 1093 q 527 1093 539 1093 q 502 1093 515 1093 q 473 1093 488 1093 q 457 1093 465 1093 q 215 1036 292 1093 q 140 885 140 979 q 140 878 140 882 q 157 772 142 833 q 176 674 175 706 q 178 638 178 642 q 136 553 178 583 q 98 532 113 538 q 75 517 81 524 q 68 486 68 510 q 76 457 68 465 q 104 437 83 448 q 135 419 118 431 q 178 334 178 390 q 176 298 178 331 q 157 199 175 266 q 140 94 142 140 q 140 91 140 93 q 140 87 140 89 q 216 -64 140 -7 q 461 -121 292 -121 q 473 -121 467 -121 q 502 -121 489 -121 q 528 -121 515 -121 q 549 -121 539 -121 q 604 -113 585 -121 q 624 -56 624 -105 q 605 9 624 3 q 566 16 587 16 q 514 11 545 16 q 501 9 508 10 q 487 8 494 9 q 477 7 482 7 q 451 17 460 7 q 442 53 442 26 "},"|":{"ha":309,"x_min":68,"x_max":240,"o":"m 219 513 q 226 791 219 675 q 231 911 231 860 q 222 1021 231 974 q 165 1069 214 1069 q 141 1066 154 1069 q 74 1005 80 1054 q 68 916 68 957 q 75 784 68 861 q 87 493 85 667 q 79 208 87 332 q 74 70 74 130 q 81 -42 74 13 q 139 -97 88 -97 q 156 -95 147 -97 q 233 -31 225 -81 q 240 65 240 20 q 233 200 240 122 q 219 513 222 323 "},"}":{"ha":692,"x_min":68,"x_max":624,"o":"m 250 53 q 241 17 250 26 q 215 7 233 7 q 205 8 210 7 q 191 9 197 9 q 178 11 184 10 q 126 16 148 16 q 87 9 105 16 q 68 -56 68 3 q 87 -113 68 -105 q 142 -121 107 -121 q 164 -121 153 -121 q 190 -121 176 -121 q 218 -121 203 -121 q 231 -121 224 -121 q 476 -64 399 -121 q 552 87 552 -7 q 552 91 552 89 q 552 94 552 93 q 534 199 550 140 q 515 298 517 266 q 514 334 514 331 q 556 419 514 390 q 587 437 574 431 q 616 457 608 448 q 624 486 624 465 q 618 517 624 510 q 593 532 611 524 q 555 553 579 538 q 513 637 513 583 q 515 673 513 642 q 534 772 517 706 q 552 878 550 833 q 552 885 552 881 q 477 1036 552 979 q 234 1093 401 1093 q 218 1093 227 1093 q 190 1093 203 1093 q 165 1093 177 1093 q 142 1093 153 1093 q 88 1085 108 1093 q 68 1028 68 1078 q 87 964 68 970 q 127 957 106 957 q 178 961 149 957 q 191 962 184 962 q 205 964 197 963 q 215 964 210 964 q 241 956 233 964 q 250 919 250 947 q 263 743 250 812 q 298 633 277 674 q 342 570 319 593 q 384 534 365 547 q 408 513 399 524 q 417 489 417 503 q 406 460 416 471 q 379 439 395 449 q 338 406 360 427 q 296 345 317 384 q 262 234 275 304 q 250 53 250 164 "},"¢":{"ha":819,"x_min":68,"x_max":751,"o":"m 70 422 q 159 245 81 317 q 363 140 237 172 q 385 51 364 83 q 452 17 406 19 q 512 45 493 17 q 534 122 531 73 q 605 125 569 122 q 719 176 686 136 q 751 264 751 216 q 751 270 751 265 q 750 294 751 277 q 723 361 749 321 q 660 406 698 401 q 656 406 659 406 q 653 406 654 406 q 568 394 618 406 q 522 385 545 389 q 517 496 517 441 q 522 625 517 563 q 571 612 548 619 q 656 596 621 596 q 666 596 661 596 q 731 634 713 604 q 749 699 749 664 q 747 726 749 704 q 727 784 747 749 q 667 836 705 821 q 582 851 629 851 q 578 851 580 851 q 562 850 570 851 q 531 849 547 850 q 456 954 526 937 q 454 954 455 954 q 437 956 445 956 q 382 925 397 956 q 366 835 366 894 q 366 821 366 829 q 142 681 217 777 q 68 460 68 585 q 70 425 68 442 q 70 422 70 423 m 378 395 q 321 509 329 419 q 321 515 321 512 q 337 576 321 551 q 378 616 352 602 q 382 513 382 566 q 378 395 382 453 "},"£":{"ha":838,"x_min":68,"x_max":769,"o":"m 768 132 q 768 134 768 133 q 769 165 769 151 q 751 247 769 218 q 703 281 734 277 q 649 284 671 284 q 580 280 618 284 l 574 279 q 568 279 571 279 q 487 274 528 276 q 471 273 479 273 q 455 273 463 273 q 446 272 451 272 q 436 271 441 272 q 397 269 416 269 q 377 269 393 269 q 363 274 368 270 q 356 282 358 277 q 355 288 355 286 q 376 327 355 302 q 378 330 378 328 q 394 346 388 339 q 395 347 395 347 q 413 369 404 357 q 433 399 422 380 q 437 406 435 404 q 454 432 446 427 q 471 437 461 437 q 486 436 478 437 q 490 435 488 436 q 498 434 494 435 q 541 429 521 429 q 577 433 555 429 q 600 488 600 437 q 572 533 595 530 q 537 536 549 536 q 488 530 513 536 q 486 530 487 530 q 485 530 486 530 q 468 528 476 528 q 454 530 463 528 q 437 552 447 532 q 370 636 410 600 q 337 698 337 671 q 343 724 337 705 q 372 749 349 743 q 405 755 395 755 q 468 734 435 755 q 496 713 483 724 q 500 711 498 712 q 578 661 549 675 q 625 647 608 647 q 668 663 644 647 q 719 758 692 677 q 734 836 734 804 q 725 880 734 854 q 671 929 715 905 q 537 976 606 968 q 431 983 468 983 q 286 968 368 983 q 136 897 203 951 q 68 748 68 842 q 104 649 71 695 q 181 560 138 603 q 199 533 199 541 q 196 528 199 530 q 182 526 192 526 q 151 530 170 526 q 127 532 138 532 q 92 526 111 532 q 69 476 73 519 q 69 474 69 475 q 93 426 69 429 q 129 423 117 423 q 179 429 153 423 q 195 431 189 430 q 203 432 199 431 q 210 433 206 433 q 232 437 225 437 q 241 437 239 437 q 241 437 241 437 q 250 436 247 437 q 254 434 253 435 q 256 431 256 432 q 256 428 256 429 q 256 428 256 428 q 245 404 256 421 q 202 357 229 382 q 193 349 198 353 q 110 258 144 306 q 76 147 76 210 q 76 135 76 141 q 90 44 80 73 q 125 6 99 15 q 206 -5 152 -3 q 383 -11 307 -9 q 386 -11 385 -11 q 404 -11 395 -11 q 480 -11 462 -11 q 666 -8 584 -11 q 749 35 730 -4 q 768 132 766 73 "},"¥":{"ha":996,"x_min":68,"x_max":928,"o":"m 196 964 q 85 901 102 931 q 68 852 68 870 q 98 774 68 817 q 203 625 151 700 q 309 475 256 549 q 311 472 310 473 q 313 469 312 471 q 332 440 323 455 q 340 414 340 425 q 339 404 340 411 q 315 397 338 397 q 313 397 314 397 q 312 397 313 397 q 296 397 305 397 q 274 399 286 399 q 236 395 257 399 q 211 359 214 391 q 231 321 212 327 q 267 317 250 317 q 282 317 274 317 q 290 318 286 317 q 298 318 294 318 q 305 317 301 318 q 311 317 309 317 q 315 317 313 317 q 319 316 317 317 q 337 312 332 316 q 342 295 342 307 q 342 286 342 291 q 331 266 340 269 q 311 262 323 262 q 308 262 309 262 q 306 262 307 262 q 300 262 303 262 q 286 262 294 262 q 274 263 280 263 q 235 258 255 263 q 212 220 214 252 q 227 190 213 195 q 258 185 241 185 q 266 185 262 185 q 271 186 269 185 q 277 186 274 186 q 281 186 279 186 q 286 185 283 185 q 298 184 293 184 q 317 181 311 184 q 323 169 323 178 q 323 165 323 167 q 316 90 316 124 q 318 50 316 78 q 348 1 320 22 q 426 -19 376 -19 q 457 -18 440 -19 q 618 41 575 -4 q 660 159 660 89 q 660 161 660 160 q 661 180 660 174 q 666 187 662 186 q 680 189 671 189 q 684 189 682 189 q 687 189 686 189 q 695 189 691 189 q 711 189 703 189 q 713 189 712 189 q 728 187 721 187 q 753 191 741 187 q 769 222 767 195 q 749 258 768 255 q 718 261 730 261 q 690 258 704 261 q 684 258 687 258 q 678 257 681 258 q 675 257 677 257 q 673 257 674 257 q 655 263 661 257 q 648 288 648 269 q 648 293 648 291 q 652 312 648 307 q 671 317 656 317 q 689 317 680 317 q 699 317 694 317 q 740 322 719 317 q 764 358 760 328 q 740 395 763 391 q 700 399 718 399 q 675 397 688 399 q 655 397 665 397 q 636 400 640 397 q 632 418 632 404 q 632 425 632 422 q 631 431 631 428 q 646 486 631 463 q 697 545 659 509 q 866 747 790 641 q 880 764 873 755 q 892 782 886 773 q 928 875 928 831 q 918 926 928 890 q 823 982 907 962 q 732 992 771 992 q 667 982 702 992 q 610 929 633 971 q 566 820 586 887 q 531 721 552 775 q 498 676 513 676 q 487 680 496 676 q 461 732 477 684 q 435 813 446 774 q 395 922 417 877 q 342 976 372 967 q 294 985 313 985 q 196 964 255 985 "},"ª":{"ha":519,"x_min":68,"x_max":451,"o":"m 369 890 q 337 954 360 931 q 269 984 314 976 q 250 985 260 985 q 194 959 217 985 q 158 884 172 933 q 117 760 136 812 q 80 648 96 705 q 68 580 68 608 q 73 547 68 569 q 138 512 77 526 q 180 507 163 507 q 216 520 204 507 q 231 573 228 534 q 239 627 233 597 q 254 652 248 652 q 262 653 262 653 q 283 626 278 653 q 285 588 285 606 q 290 548 285 565 q 372 517 300 517 q 380 517 376 517 q 391 517 385 517 q 446 543 441 522 q 451 576 451 564 q 444 620 451 596 q 401 775 425 692 q 369 890 382 840 m 259 842 q 280 821 273 841 q 288 781 288 800 q 286 760 288 775 q 264 737 284 745 q 254 736 258 736 q 233 747 239 736 q 227 773 227 758 q 229 791 227 779 q 239 823 230 805 q 259 842 248 840 "},"«":{"ha":1077,"x_min":68,"x_max":1009,"o":"m 277 700 q 119 562 192 613 q 68 488 68 528 q 68 467 68 487 q 119 410 68 446 q 277 273 191 359 q 374 161 332 218 q 445 79 412 112 q 511 39 479 45 q 522 38 517 38 q 582 68 550 38 q 610 123 610 96 q 606 149 610 129 q 568 201 602 168 q 486 271 534 234 q 382 360 433 311 q 315 435 345 398 q 288 486 288 467 l 288 488 q 311 532 288 506 q 382 612 342 572 q 486 702 432 661 q 568 772 534 739 q 609 838 602 805 q 610 849 610 844 q 582 905 610 877 q 522 935 550 935 q 498 931 517 935 q 446 894 479 928 q 374 812 412 860 q 277 700 332 756 m 676 700 q 517 562 590 613 q 467 488 467 528 q 467 467 467 487 q 517 410 467 446 q 676 273 590 359 q 772 161 730 218 q 844 79 810 112 q 910 39 878 45 q 920 38 916 38 q 980 68 949 38 q 1009 124 1009 97 q 1005 149 1009 130 q 966 201 1000 168 q 884 271 932 234 q 780 360 831 311 q 713 435 744 398 q 686 486 687 467 l 686 487 q 709 532 686 507 q 780 612 741 572 q 884 702 831 661 q 966 772 932 739 q 1008 838 1000 805 q 1009 848 1009 844 q 980 905 1009 876 q 920 935 949 935 q 900 932 916 935 q 896 931 898 931 q 844 894 877 928 q 772 812 810 860 q 676 700 730 756 "},"®":{"ha":994,"x_min":68,"x_max":926,"o":"m 68 463 q 101 263 68 346 q 191 126 134 180 q 313 42 246 72 q 450 5 380 13 q 515 1 484 1 q 699 45 621 1 q 859 206 802 102 q 921 384 915 310 q 926 481 926 458 q 895 675 926 581 q 761 888 850 810 q 520 972 672 965 l 506 972 q 359 947 433 972 q 214 857 280 919 q 107 697 147 795 q 68 463 68 600 m 817 617 q 838 470 838 537 q 804 314 838 399 q 680 169 771 229 q 477 102 579 102 q 406 107 467 102 q 262 184 344 111 q 161 381 180 257 q 156 469 156 428 q 197 673 156 575 q 324 831 237 771 q 510 892 412 892 q 693 825 609 892 q 817 617 777 758 m 453 726 q 451 726 452 726 q 427 728 438 728 q 354 714 382 728 q 315 644 319 697 q 313 515 313 576 q 313 433 313 455 q 314 318 313 367 q 332 259 315 273 q 375 245 348 245 q 401 248 387 245 q 457 262 440 250 q 473 304 473 274 l 473 313 q 466 355 471 335 q 462 376 463 366 q 461 386 461 381 q 468 405 461 400 q 472 406 470 406 q 492 389 480 406 q 520 330 505 363 q 532 303 526 315 q 535 296 534 300 q 565 262 552 262 q 578 262 578 262 q 631 279 602 262 q 682 334 682 304 q 663 372 682 352 q 618 418 643 395 q 597 439 606 430 q 585 452 591 446 q 576 469 576 462 l 576 470 q 585 485 576 476 q 623 535 612 510 q 634 584 634 559 q 633 606 634 594 q 568 695 622 667 q 453 726 514 724 m 526 589 q 505 553 525 564 q 471 542 486 542 q 455 545 463 542 q 435 587 435 552 l 435 593 q 454 633 440 629 q 473 636 469 636 q 503 626 489 636 q 526 589 524 612 "},"°":{"ha":368,"x_min":68,"x_max":300,"o":"m 153 953 q 84 898 100 937 q 68 831 68 861 q 78 774 68 810 q 138 716 88 739 q 176 709 158 709 q 246 737 209 709 q 292 798 283 765 q 300 846 300 833 q 270 918 300 884 q 222 947 247 939 q 178 956 197 956 q 153 953 165 956 m 180 868 q 189 869 185 869 q 213 858 204 869 q 221 835 221 848 q 219 823 221 830 q 202 803 212 807 q 185 799 191 799 q 170 803 177 799 q 152 835 152 816 q 152 836 152 835 q 153 847 153 838 q 180 868 153 859 "},"»":{"ha":1077,"x_min":68,"x_max":1009,"o":"m 800 700 q 703 812 745 756 q 632 894 665 860 q 580 931 598 928 q 576 932 578 931 q 555 935 560 935 q 495 905 527 935 q 467 849 467 877 q 468 838 467 844 q 509 772 475 805 q 591 702 543 739 q 695 612 646 661 q 766 532 735 572 q 789 487 789 507 l 789 486 q 762 435 789 467 q 695 360 732 398 q 591 271 645 311 q 509 201 544 234 q 471 149 475 168 q 467 123 467 129 q 495 68 467 96 q 555 38 527 38 q 566 39 561 38 q 632 79 598 45 q 703 161 666 112 q 800 273 745 218 q 958 410 886 359 q 1009 467 1008 446 q 1009 488 1009 487 q 958 562 1009 528 q 800 700 886 613 m 401 700 q 304 812 347 756 q 233 894 267 860 q 181 931 200 928 q 177 932 179 931 q 157 935 161 935 q 97 905 128 935 q 68 848 68 876 q 69 838 68 844 q 111 772 78 805 q 193 702 144 739 q 297 612 246 661 q 368 532 336 572 q 391 487 391 507 l 391 486 q 363 435 391 467 q 297 360 334 398 q 193 271 246 311 q 111 201 145 234 q 73 149 77 168 q 68 124 68 130 q 97 68 68 97 q 157 38 128 38 q 167 39 162 38 q 233 79 199 45 q 304 161 267 112 q 401 273 347 218 q 559 410 487 359 q 611 467 610 446 q 611 488 611 487 q 559 562 611 528 q 401 700 487 613 "},"×":{"ha":681,"x_min":68,"x_max":613,"o":"m 369 351 q 372 349 370 350 q 376 342 374 345 q 448 259 414 293 q 500 222 481 225 q 504 221 502 222 q 524 218 519 218 q 585 248 553 218 q 613 305 613 278 q 612 317 613 311 q 568 385 603 351 q 484 455 533 418 l 478 459 q 455 487 455 478 l 455 488 q 476 514 456 499 q 491 526 484 520 q 572 596 538 563 q 608 648 604 629 q 609 654 608 651 q 611 670 611 667 q 581 730 611 699 q 524 760 552 760 q 513 758 519 760 q 448 716 481 749 q 378 635 415 683 l 369 623 q 348 602 354 603 q 340 600 342 600 q 315 619 330 600 l 298 640 q 216 730 248 706 q 161 753 183 753 q 106 732 134 753 q 68 675 68 703 l 68 672 q 99 612 70 644 q 176 545 129 581 q 210 517 193 532 q 230 496 229 503 q 231 489 231 490 q 211 462 231 478 l 189 444 q 99 362 123 394 q 75 308 75 330 q 97 252 75 281 q 155 214 127 214 l 157 214 q 217 246 186 216 q 284 322 248 275 q 307 349 295 334 q 311 355 309 351 q 338 374 328 374 q 340 374 340 374 q 342 374 341 374 q 369 351 355 371 "},"÷":{"ha":426,"x_min":68,"x_max":358,"o":"m 68 785 q 95 697 68 742 q 183 642 122 652 q 207 640 196 640 q 307 672 265 640 q 356 752 349 704 q 358 781 358 767 q 332 871 358 828 q 224 921 306 915 q 111 880 150 921 q 68 791 71 840 l 68 785 m 68 191 q 95 104 68 149 q 183 49 122 60 q 207 47 196 47 q 307 79 265 47 q 356 159 349 111 q 358 189 358 174 q 332 279 358 235 q 224 328 306 323 l 221 328 q 110 287 149 328 q 68 197 71 246 l 68 191 "},"‘":{"ha":416,"x_min":68,"x_max":348,"o":"m 348 690 q 290 810 348 755 q 264 859 264 836 q 264 859 264 859 q 265 874 264 861 q 275 907 267 886 q 284 932 283 924 q 285 942 286 941 q 285 942 285 942 q 264 968 285 958 q 243 972 255 972 q 200 957 226 972 q 146 907 174 941 q 92 811 113 867 q 68 699 69 755 l 68 694 q 96 604 68 642 q 193 557 124 565 l 203 557 q 307 598 270 557 q 348 688 345 639 l 348 690 "},"’":{"ha":415,"x_min":68,"x_max":347,"o":"m 68 838 q 125 719 68 774 q 151 671 151 694 q 151 671 151 671 q 151 656 152 669 q 140 623 149 644 q 131 589 131 604 l 131 588 q 152 562 131 573 q 173 557 162 557 q 216 573 191 557 q 269 622 241 589 q 324 719 302 663 q 347 830 346 775 l 347 835 q 319 926 347 888 q 223 972 291 964 l 212 972 q 109 932 146 972 q 68 842 71 891 l 68 838 "},"‚":{"ha":415,"x_min":68,"x_max":347,"o":"m 68 281 q 125 162 68 217 q 151 113 151 137 q 151 113 151 113 q 151 99 152 111 q 140 66 149 86 q 131 31 131 47 l 131 31 q 151 4 131 16 q 172 0 161 0 q 216 16 190 0 q 269 65 241 32 q 324 162 302 106 q 347 273 346 218 l 347 278 q 319 370 347 331 q 223 415 292 408 l 212 415 q 109 374 146 415 q 68 285 71 334 l 68 281 "},"“":{"ha":750,"x_min":68,"x_max":682,"o":"m 682 690 q 625 810 682 755 q 599 859 599 836 q 599 859 599 859 q 600 874 598 861 q 610 907 601 886 q 619 941 618 926 l 619 942 q 598 968 619 958 q 578 972 589 972 q 534 957 560 972 q 481 907 508 941 q 426 811 448 867 q 402 699 404 755 l 402 694 q 431 604 402 642 q 527 557 458 565 l 538 557 q 642 598 604 557 q 682 688 680 639 l 682 690 m 348 690 q 290 810 348 755 q 264 859 264 836 q 264 859 264 859 q 265 874 264 861 q 276 907 267 886 q 285 941 284 926 l 285 942 q 264 968 285 958 q 243 972 255 972 q 200 957 226 972 q 146 907 174 941 q 92 811 113 867 q 68 699 69 755 l 68 694 q 96 604 68 642 q 193 557 124 565 l 203 557 q 307 598 270 557 q 348 688 345 639 l 348 690 "},"”":{"ha":749,"x_min":68,"x_max":682,"o":"m 68 838 q 125 719 68 774 q 151 671 151 694 q 151 671 151 671 q 151 656 152 669 q 140 623 149 644 q 131 589 131 604 l 131 588 q 151 562 131 573 q 173 557 162 557 q 216 573 191 557 q 269 622 241 589 q 324 719 302 663 q 347 830 346 775 l 347 835 q 319 926 347 888 q 223 972 292 964 l 212 972 q 109 932 146 972 q 68 842 71 891 l 68 838 m 402 838 q 459 719 402 774 q 486 671 486 694 q 486 671 486 671 q 485 656 486 669 q 474 623 484 644 q 465 589 465 604 l 465 588 q 486 562 465 573 q 507 557 496 557 q 550 573 525 557 q 603 622 576 589 q 659 719 636 663 q 682 830 680 775 l 682 835 q 654 926 682 888 q 557 972 626 964 l 547 972 q 443 932 481 972 q 402 842 406 891 l 402 838 "},"„":{"ha":750,"x_min":68,"x_max":682,"o":"m 68 282 q 125 162 68 218 q 151 113 151 137 q 151 113 151 113 q 151 99 152 111 q 140 66 149 86 q 131 31 132 47 l 131 31 q 152 4 131 16 q 172 0 161 0 q 216 16 190 0 q 269 65 242 32 q 325 162 302 106 q 348 273 347 218 l 348 278 q 320 370 348 331 q 223 415 292 408 l 212 415 q 109 374 146 415 q 68 285 71 334 l 68 282 m 403 281 q 460 162 403 217 q 486 113 486 137 q 486 113 486 113 q 485 99 486 111 q 474 66 484 86 q 465 31 466 47 l 465 31 q 486 4 465 16 q 507 0 496 0 q 550 16 524 0 q 604 65 576 32 q 659 162 637 106 q 682 273 681 218 l 682 278 q 654 370 682 331 q 558 415 626 408 l 547 415 q 444 374 481 415 q 403 285 406 334 l 403 281 "},"‹":{"ha":678,"x_min":68,"x_max":610,"o":"m 277 700 q 119 562 191 613 q 68 488 68 528 q 68 467 68 487 q 119 410 68 446 q 277 273 191 359 q 374 161 332 218 q 445 79 411 112 q 511 39 479 45 q 522 38 517 38 q 582 68 550 38 q 610 123 610 96 q 606 149 610 129 q 568 201 602 168 q 486 271 533 234 q 382 360 432 313 q 315 435 345 398 q 288 486 288 467 l 288 488 q 311 532 288 506 q 382 612 342 572 q 486 702 432 661 q 568 771 534 738 q 609 838 602 805 q 610 849 610 844 q 582 905 610 877 q 522 935 550 935 q 498 931 517 935 q 446 894 479 928 q 374 812 412 860 q 277 700 332 756 "},"›":{"ha":678,"x_min":68,"x_max":610,"o":"m 401 700 q 304 812 347 756 q 233 894 267 860 q 181 931 199 928 q 177 932 179 931 q 157 935 161 935 q 96 905 128 935 q 68 849 68 877 q 69 838 68 844 q 111 771 77 805 q 193 702 144 738 q 296 612 247 661 q 368 532 336 572 q 390 488 390 506 l 390 486 q 363 435 390 467 q 296 360 333 398 q 192 271 246 313 q 111 201 145 234 q 72 149 76 168 q 68 123 68 129 q 96 68 68 96 q 157 38 128 38 q 167 39 162 38 q 233 79 199 45 q 304 161 267 112 q 401 273 347 218 q 559 410 488 359 q 610 467 610 446 q 610 488 610 487 q 559 562 610 528 q 401 700 488 613 "},"€":{"ha":844,"x_min":68,"x_max":775,"o":"m 667 -20 q 750 28 724 -12 q 775 118 775 69 q 775 123 775 120 q 741 229 774 199 q 640 258 707 258 q 639 258 640 258 q 637 258 638 258 q 568 270 602 258 q 507 310 534 282 q 496 334 496 321 q 497 344 496 336 q 515 353 498 352 q 528 353 522 353 q 540 352 534 353 q 564 351 553 351 q 610 357 587 351 q 637 405 635 363 q 612 453 635 450 q 576 456 588 456 q 520 450 549 456 q 476 444 495 445 q 475 444 475 444 q 473 444 474 444 q 446 452 450 444 q 441 472 441 460 q 442 485 441 477 q 442 500 442 494 q 444 517 442 512 q 453 525 446 523 q 479 526 461 526 q 524 522 498 526 q 577 517 552 517 q 618 520 591 517 q 646 569 644 524 q 609 614 643 608 q 546 621 576 621 q 525 620 536 621 q 505 620 515 620 q 488 626 492 620 q 484 637 484 631 q 485 646 484 640 q 491 659 486 651 q 548 711 513 692 q 633 730 584 730 q 635 730 634 730 q 637 730 636 730 q 640 730 638 730 q 642 730 641 730 q 742 765 716 730 q 768 836 768 800 q 758 897 768 864 q 697 974 739 951 q 602 996 655 996 q 593 996 597 996 q 425 954 501 996 q 297 836 350 911 q 217 668 244 760 q 216 664 216 666 q 212 649 213 655 q 207 633 211 637 q 182 629 202 629 q 151 631 168 629 q 148 631 149 631 q 123 633 135 633 q 87 628 106 633 q 68 587 68 623 q 68 581 68 585 q 86 538 71 543 q 116 532 102 532 q 133 534 124 532 q 135 534 134 534 q 161 536 148 536 q 171 536 167 536 q 187 535 182 536 q 193 532 192 534 q 194 527 194 530 q 194 526 194 526 q 194 522 194 524 q 193 518 193 520 q 192 492 192 510 q 193 473 192 481 q 193 471 193 471 q 194 460 194 465 q 191 444 194 452 q 164 432 188 435 q 158 432 161 432 q 152 431 155 431 q 127 433 139 431 q 111 435 119 435 q 83 429 96 435 q 68 387 70 425 q 87 342 68 348 q 123 338 106 338 q 146 339 135 338 q 175 341 162 341 q 201 333 193 341 q 214 296 208 325 q 292 121 237 198 q 427 11 347 45 q 600 -24 507 -24 q 667 -20 632 -24 "},"−":{"ha":817,"x_min":68,"x_max":749,"o":"m 389 419 q 465 416 428 419 q 537 408 503 412 q 623 400 598 400 q 649 400 647 400 q 721 418 694 400 q 749 489 749 437 q 722 555 749 538 q 649 573 695 573 l 646 573 q 538 564 598 572 q 401 554 471 554 q 271 563 334 554 q 184 570 223 570 q 134 566 157 570 q 69 492 79 557 q 69 490 69 491 q 68 472 68 480 q 85 422 68 439 q 130 404 107 404 q 158 404 154 404 q 250 410 198 404 q 389 419 316 419 "}}}
